<svg width="50" height="54" viewBox="0 0 50 54" fill="none" xmlns="http://www.w3.org/2000/svg">
<rect y="0.000244141" width="50" height="54" rx="5" fill="#1A1A1A"/>
<path d="M12.5858 42.1193C12.5858 42.2929 12.555 42.4793 12.4935 42.6783C12.4356 42.8773 12.3379 43.0618 12.2004 43.2319C12.0666 43.4019 11.8911 43.5448 11.674 43.6606C11.4569 43.7728 11.191 43.8289 10.8762 43.8289H5.51951C5.4182 43.8289 5.32413 43.8108 5.23729 43.7746C5.15045 43.7384 5.07447 43.6896 5.00935 43.628C4.94784 43.5629 4.89899 43.4869 4.86281 43.4001C4.82663 43.3133 4.80854 43.2192 4.80854 43.1179V36.7572C4.80854 36.6595 4.82663 36.5672 4.86281 36.4804C4.89899 36.3935 4.94784 36.3175 5.00935 36.2524C5.07447 36.1873 5.15045 36.1366 5.23729 36.1005C5.32413 36.0643 5.4182 36.0462 5.51951 36.0462H10.2412C10.4149 36.0462 10.6012 36.0769 10.8002 36.1384C10.9992 36.2 11.1837 36.2995 11.3538 36.4369C11.5275 36.5708 11.6704 36.7463 11.7825 36.9634C11.8983 37.1805 11.9562 37.4464 11.9562 37.7612V38.0271C11.9562 38.2768 11.9146 38.5463 11.8314 38.8358C11.7482 39.1216 11.6143 39.393 11.4298 39.6499C11.589 39.7476 11.7373 39.8652 11.8748 40.0026C12.0159 40.1401 12.1389 40.2993 12.2439 40.4802C12.3488 40.6612 12.432 40.8656 12.4935 41.0935C12.555 41.3215 12.5858 41.5729 12.5858 41.8479V42.1193ZM11.1747 41.8479C11.1747 41.6634 11.1458 41.4988 11.0879 41.354C11.03 41.2057 10.9486 41.0791 10.8436 40.9741C10.7387 40.8692 10.6121 40.7896 10.4637 40.7353C10.3154 40.6774 10.1489 40.6485 9.96442 40.6485H6.78406V39.2266H9.32943C9.51396 39.2266 9.6804 39.1994 9.82874 39.1451C9.97709 39.0873 10.1037 39.0058 10.2086 38.9009C10.3136 38.796 10.3932 38.6712 10.4474 38.5264C10.5053 38.3781 10.5343 38.2117 10.5343 38.0271V37.7612C10.5343 37.5586 10.4366 37.4573 10.2412 37.4573H6.21962V42.4178H10.8762C10.9015 42.4178 10.9323 42.416 10.9685 42.4123C11.0046 42.4087 11.0372 42.3979 11.0662 42.3798C11.0951 42.3617 11.1204 42.3309 11.1421 42.2875C11.1638 42.2441 11.1747 42.1844 11.1747 42.1084V41.8479ZM19.6792 36.4044C19.7407 36.5165 19.7715 36.6359 19.7715 36.7626C19.7715 36.8856 19.7407 37.0032 19.6792 37.1154L15.7661 43.8289H14.1325L17.8339 37.4573H13.2642V36.0462H19.0659C19.1926 36.0462 19.3101 36.0787 19.4187 36.1439C19.5308 36.2054 19.6177 36.2922 19.6792 36.4044ZM30.7888 36.0462L29.4862 43.3404C29.4573 43.4851 29.3922 43.61 29.2908 43.7149C29.1895 43.8198 29.0665 43.8867 28.9218 43.9157C28.7734 43.941 28.6323 43.9247 28.4985 43.8668C28.3682 43.809 28.2651 43.7185 28.1891 43.5955L25.6057 39.3514L23.0169 43.5955C22.9554 43.7004 22.8704 43.7818 22.7619 43.8397C22.6569 43.8976 22.543 43.9265 22.42 43.9265C22.2499 43.9265 22.0997 43.8723 21.9695 43.7637C21.8392 43.6552 21.7596 43.5141 21.7307 43.3404L20.4173 36.0462H21.8501L22.7836 41.1858L25.0087 37.6364C25.0703 37.5314 25.1535 37.45 25.2584 37.3921C25.3669 37.3343 25.4827 37.3053 25.6057 37.3053C25.7288 37.3053 25.8427 37.3343 25.9477 37.3921C26.0526 37.45 26.1394 37.5314 26.2082 37.6364L28.4225 41.1858L29.356 36.0462H30.7888ZM38.0016 39.905C38.0016 40.1003 37.9672 40.312 37.8985 40.5399C37.8297 40.7643 37.7176 40.9741 37.562 41.1695C37.41 41.3613 37.2092 41.5223 36.9595 41.6525C36.7135 41.7828 36.4132 41.8479 36.0586 41.8479H33.5132V40.5074H36.0586C36.2504 40.5074 36.3987 40.4495 36.5037 40.3337C36.6086 40.2143 36.661 40.0678 36.661 39.8941C36.661 39.7096 36.6013 39.5649 36.4819 39.4599C36.3662 39.355 36.2251 39.3025 36.0586 39.3025H33.5132C33.3215 39.3025 33.1731 39.3622 33.0682 39.4816C32.9633 39.5974 32.9108 39.7421 32.9108 39.9158V41.8859C32.9108 42.074 32.9687 42.2206 33.0845 42.3255C33.2039 42.4304 33.3504 42.4829 33.5241 42.4829H36.0586V43.8289H33.5132C33.3179 43.8289 33.1062 43.7945 32.8783 43.7257C32.6539 43.657 32.4441 43.5466 32.2487 43.3947C32.0569 43.2391 31.8959 43.0383 31.7657 42.7923C31.6354 42.5426 31.5703 42.2405 31.5703 41.8859V39.905C31.5703 39.7096 31.6047 39.4997 31.6734 39.2754C31.7422 39.0475 31.8525 38.8376 32.0045 38.6458C32.1601 38.4505 32.3609 38.2876 32.6069 38.1574C32.8565 38.0271 33.1587 37.962 33.5132 37.962H36.0586C36.254 37.962 36.4639 37.9964 36.6882 38.0651C36.9161 38.1339 37.126 38.246 37.3177 38.4016C37.5131 38.5536 37.6759 38.7544 37.8062 39.004C37.9364 39.2501 38.0016 39.5504 38.0016 39.905ZM45.4206 41.8479C45.4206 41.9818 45.4043 42.1229 45.3718 42.2712C45.3428 42.4196 45.2958 42.5679 45.2307 42.7163C45.1655 42.861 45.0805 43.0003 44.9756 43.1342C44.8743 43.268 44.7495 43.3874 44.6011 43.4924C44.4564 43.5937 44.2881 43.6751 44.0964 43.7366C43.9046 43.7981 43.6875 43.8289 43.4451 43.8289H40.8997C40.7659 43.8289 40.6247 43.8144 40.4764 43.7854C40.3281 43.7529 40.1797 43.704 40.0314 43.6389C39.8866 43.5738 39.7473 43.4906 39.6135 43.3893C39.4796 43.2843 39.3602 43.1595 39.2553 43.0148C39.154 42.8664 39.0726 42.6964 39.011 42.5046C38.9495 42.3092 38.9188 42.0903 38.9188 41.8479V35.4818H40.3299V41.8479C40.3299 42.0216 40.3841 42.1609 40.4927 42.2658C40.6012 42.3671 40.7369 42.4178 40.8997 42.4178H43.4451C43.6224 42.4178 43.7599 42.3653 43.8576 42.2604C43.9589 42.1555 44.0095 42.018 44.0095 41.8479V39.9375C44.0095 39.7602 43.9571 39.6227 43.8522 39.5251C43.7472 39.4237 43.6115 39.3731 43.4451 39.3731H40.8997V37.962H43.4451C43.579 37.962 43.7201 37.9783 43.8684 38.0108C44.0168 38.0398 44.1633 38.0868 44.308 38.152C44.4564 38.2171 44.5975 38.3021 44.7314 38.407C44.8652 38.5083 44.9828 38.6332 45.0841 38.7815C45.1854 38.9262 45.2669 39.0945 45.3284 39.2863C45.3899 39.478 45.4206 39.6951 45.4206 39.9375V41.8479Z" fill="white"/>
<path d="M12.4935 42.6783L12.3629 42.6379L12.3623 42.6401L12.4935 42.6783ZM12.2004 43.2319L12.0942 43.1459L12.0931 43.1473L12.2004 43.2319ZM11.674 43.6606L11.7367 43.782L11.7383 43.7812L11.674 43.6606ZM5.23729 43.7746L5.18473 43.9007L5.23729 43.7746ZM5.00935 43.628L4.90983 43.722L4.91551 43.7274L5.00935 43.628ZM5.00935 36.2524L4.91267 36.1557L4.90999 36.1586L5.00935 36.2524ZM11.3538 36.4369L11.2679 36.5432L11.2704 36.5452L11.3538 36.4369ZM11.7825 36.9634L11.6611 37.0261L11.662 37.0277L11.7825 36.9634ZM11.8314 38.8358L11.9626 38.874L11.9627 38.8736L11.8314 38.8358ZM11.4298 39.6499L11.3188 39.5702L11.2331 39.6895L11.3583 39.7664L11.4298 39.6499ZM11.8748 40.0026L11.7782 40.0993L11.7794 40.1005L11.8748 40.0026ZM11.0879 41.354L10.9605 41.4037L10.961 41.4048L11.0879 41.354ZM10.8436 40.9741L10.747 41.0708L10.8436 40.9741ZM10.4637 40.7353L10.414 40.8627L10.4168 40.8637L10.4637 40.7353ZM6.78406 40.6485H6.6474V40.7852H6.78406V40.6485ZM6.78406 39.2266V39.0899H6.6474V39.2266H6.78406ZM9.82874 39.1451L9.87571 39.2735L9.87842 39.2725L9.82874 39.1451ZM10.4474 38.5264L10.3201 38.4768L10.3195 38.4785L10.4474 38.5264ZM6.21962 37.4573V37.3206H6.08296V37.4573H6.21962ZM6.21962 42.4178H6.08296V42.5544H6.21962V42.4178ZM12.4491 42.1193C12.4491 42.2769 12.4212 42.4495 12.363 42.6379L12.6241 42.7186C12.6889 42.5091 12.7224 42.309 12.7224 42.1193H12.4491ZM12.3623 42.6401C12.3098 42.8207 12.2209 42.9892 12.0942 43.1459L12.3067 43.3178C12.455 43.1344 12.5615 42.9338 12.6247 42.7165L12.3623 42.6401ZM12.0931 43.1473C11.9724 43.3006 11.8124 43.4319 11.6097 43.54L11.7383 43.7812C11.9698 43.6577 12.1608 43.5032 12.3078 43.3164L12.0931 43.1473ZM11.6113 43.5392C11.4184 43.6389 11.1753 43.6922 10.8762 43.6922V43.9655C11.2067 43.9655 11.4955 43.9067 11.7367 43.782L11.6113 43.5392ZM10.8762 43.6922H5.51951V43.9655H10.8762V43.6922ZM5.51951 43.6922C5.43484 43.6922 5.35879 43.6772 5.28985 43.6484L5.18473 43.9007C5.28947 43.9444 5.40156 43.9655 5.51951 43.9655V43.6922ZM5.28985 43.6484C5.21751 43.6183 5.15569 43.5783 5.10318 43.5287L4.91551 43.7274C4.99326 43.8008 5.0834 43.8585 5.18473 43.9007L5.28985 43.6484ZM5.1087 43.5342C5.05911 43.4817 5.0191 43.4199 4.98896 43.3475L4.73666 43.4527C4.77888 43.554 4.83657 43.6441 4.90999 43.7219L5.1087 43.5342ZM4.98896 43.3475C4.96024 43.2786 4.9452 43.2026 4.9452 43.1179H4.67188C4.67188 43.2358 4.69302 43.3479 4.73666 43.4527L4.98896 43.3475ZM4.9452 43.1179V36.7572H4.67188V43.1179H4.9452ZM4.9452 36.7572C4.9452 36.6768 4.95998 36.6025 4.98896 36.5329L4.73666 36.4278C4.69327 36.5319 4.67188 36.6421 4.67188 36.7572H4.9452ZM4.98896 36.5329C5.0191 36.4606 5.05911 36.3988 5.1087 36.3463L4.90999 36.1586C4.83657 36.2363 4.77888 36.3265 4.73666 36.4278L4.98896 36.5329ZM5.10598 36.3491C5.15821 36.2968 5.21913 36.2561 5.28985 36.2266L5.18473 35.9743C5.08178 36.0172 4.99073 36.0778 4.91271 36.1558L5.10598 36.3491ZM5.28985 36.2266C5.35879 36.1979 5.43484 36.1828 5.51951 36.1828V35.9095C5.40156 35.9095 5.28947 35.9307 5.18473 35.9743L5.28985 36.2266ZM5.51951 36.1828H10.2412V35.9095H5.51951V36.1828ZM10.2412 36.1828C10.3988 36.1828 10.5714 36.2108 10.7599 36.269L10.8406 36.0079C10.631 35.9431 10.431 35.9095 10.2412 35.9095V36.1828ZM10.7599 36.269C10.9414 36.3251 11.1106 36.4161 11.2679 36.5432L11.4397 36.3307C11.2568 36.1828 11.057 36.0748 10.8406 36.0079L10.7599 36.269ZM11.2704 36.5452C11.4265 36.6655 11.5571 36.8247 11.6611 37.0261L11.904 36.9007C11.7837 36.6679 11.6285 36.4761 11.4372 36.3287L11.2704 36.5452ZM11.662 37.0277C11.7647 37.2202 11.8196 37.4627 11.8196 37.7612H12.0929C12.0929 37.4301 12.032 37.1407 11.9031 36.8991L11.662 37.0277ZM11.8196 37.7612V38.0271H12.0929V37.7612H11.8196ZM11.8196 38.0271C11.8196 38.2617 11.7804 38.5184 11.7001 38.798L11.9627 38.8736C12.0488 38.5743 12.0929 38.2919 12.0929 38.0271H11.8196ZM11.7002 38.7976C11.6216 39.0676 11.4948 39.3251 11.3188 39.5702L11.5408 39.7296C11.7338 39.4609 11.8748 39.1756 11.9626 38.874L11.7002 38.7976ZM11.3583 39.7664C11.508 39.8582 11.648 39.9691 11.7782 40.0993L11.9714 39.906C11.8267 39.7613 11.67 39.6369 11.5013 39.5334L11.3583 39.7664ZM11.7794 40.1005C11.9111 40.2288 12.0266 40.378 12.1257 40.5488L12.3621 40.4117C12.2513 40.2207 12.1207 40.0515 11.9702 39.9048L11.7794 40.1005ZM12.1257 40.5488C12.2239 40.7181 12.3028 40.9113 12.3616 41.1291L12.6255 41.0579C12.5612 40.8199 12.4737 40.6042 12.3621 40.4117L12.1257 40.5488ZM12.3616 41.1291C12.4195 41.3437 12.4491 41.583 12.4491 41.8479H12.7224C12.7224 41.5628 12.6906 41.2992 12.6255 41.0579L12.3616 41.1291ZM12.4491 41.8479V42.1193H12.7224V41.8479H12.4491ZM11.3114 41.8479C11.3114 41.6491 11.2802 41.4668 11.2147 41.3033L10.961 41.4048C11.0113 41.5307 11.038 41.6776 11.038 41.8479H11.3114ZM11.2152 41.3044C11.1509 41.1397 11.0595 40.9967 10.9403 40.8775L10.747 41.0708C10.8376 41.1614 10.909 41.2717 10.9606 41.4037L11.2152 41.3044ZM10.9403 40.8775C10.8204 40.7576 10.6765 40.6676 10.5107 40.607L10.4168 40.8637C10.5477 40.9116 10.657 40.9808 10.747 41.0708L10.9403 40.8775ZM10.5134 40.608C10.3469 40.543 10.1633 40.5118 9.96442 40.5118V40.7852C10.1346 40.7852 10.2838 40.8118 10.414 40.8626L10.5134 40.608ZM9.96442 40.5118H6.78406V40.7852H9.96442V40.5118ZM6.92072 40.6485V39.2266H6.6474V40.6485H6.92072ZM6.78406 39.3632H9.32943V39.0899H6.78406V39.3632ZM9.32943 39.3632C9.52734 39.3632 9.71001 39.3341 9.87569 39.2735L9.78179 39.0168C9.65078 39.0647 9.50058 39.0899 9.32943 39.0899V39.3632ZM9.87842 39.2725C10.0431 39.2082 10.186 39.1168 10.3053 38.9976L10.112 38.8043C10.0214 38.8949 9.91111 38.9663 9.77906 39.0178L9.87842 39.2725ZM10.3053 38.9976C10.4246 38.8783 10.5146 38.7366 10.5754 38.5744L10.3195 38.4785C10.2718 38.6057 10.2026 38.7137 10.112 38.8043L10.3053 38.9976ZM10.5748 38.5761C10.6397 38.4096 10.6709 38.226 10.6709 38.0271H10.3976C10.3976 38.1973 10.3709 38.3465 10.3201 38.4768L10.5748 38.5761ZM10.6709 38.0271V37.7612H10.3976V38.0271H10.6709ZM10.6709 37.7612C10.6709 37.64 10.6418 37.5239 10.5594 37.4384C10.4761 37.352 10.3613 37.3206 10.2412 37.3206V37.5939C10.3165 37.5939 10.3483 37.6132 10.3626 37.6281C10.3779 37.644 10.3976 37.6797 10.3976 37.7612H10.6709ZM10.2412 37.3206H6.21962V37.5939H10.2412V37.3206ZM6.08296 37.4573V42.4178H6.35628V37.4573H6.08296ZM6.21962 42.5544H10.8762V42.2811H6.21962V42.5544ZM10.8762 42.5544C10.9075 42.5544 10.9431 42.5522 10.9821 42.5483L10.9549 42.2764C10.9214 42.2797 10.8955 42.2811 10.8762 42.2811V42.5544ZM10.9821 42.5483C11.0377 42.5428 11.0907 42.5256 11.1386 42.4957L10.9937 42.2639C10.9837 42.2701 10.9715 42.2747 10.9549 42.2764L10.9821 42.5483ZM11.1386 42.4957C11.196 42.4598 11.2359 42.4055 11.2644 42.3486L11.0199 42.2264C11.0049 42.2563 10.9942 42.2636 10.9937 42.2639L11.1386 42.4957ZM11.2644 42.3486C11.2994 42.2785 11.3114 42.1948 11.3114 42.1084H11.038C11.038 42.174 11.0283 42.2097 11.0199 42.2264L11.2644 42.3486ZM11.3114 42.1084V41.8479H11.038V42.1084H11.3114ZM19.6792 37.1154L19.7973 37.1842L19.799 37.1811L19.6792 37.1154ZM15.7661 43.8289V43.9655H15.8447L15.8842 43.8977L15.7661 43.8289ZM14.1325 43.8289L14.0144 43.7602L13.8951 43.9655H14.1325V43.8289ZM17.8339 37.4573L17.9521 37.5259L18.0714 37.3206H17.8339V37.4573ZM13.2642 37.4573H13.1275V37.5939H13.2642V37.4573ZM13.2642 36.0462V35.9095H13.1275V36.0462H13.2642ZM19.4187 36.1439L19.3483 36.2611L19.353 36.2637L19.4187 36.1439ZM19.5594 36.4701C19.6099 36.5623 19.6348 36.6592 19.6348 36.7626H19.9081C19.9081 36.6127 19.8715 36.4708 19.799 36.3387L19.5594 36.4701ZM19.6348 36.7626C19.6348 36.8617 19.6103 36.9568 19.5594 37.0496L19.799 37.1811C19.8711 37.0496 19.9081 36.9095 19.9081 36.7626H19.6348ZM19.5611 37.0465L15.6481 43.76L15.8842 43.8977L19.7973 37.1842L19.5611 37.0465ZM15.7661 43.6922H14.1325V43.9655H15.7661V43.6922ZM14.2507 43.8975L17.9521 37.5259L17.7158 37.3886L14.0144 43.7602L14.2507 43.8975ZM17.8339 37.3206H13.2642V37.5939H17.8339V37.3206ZM13.4008 37.4573V36.0462H13.1275V37.4573H13.4008ZM13.2642 36.1828H19.0659V35.9095H13.2642V36.1828ZM19.0659 36.1828C19.1678 36.1828 19.2611 36.2087 19.3484 36.2611L19.489 36.0267C19.3592 35.9488 19.2173 35.9095 19.0659 35.9095V36.1828ZM19.353 36.2637C19.4423 36.3127 19.5104 36.3808 19.5594 36.4701L19.799 36.3387C19.725 36.2037 19.6194 36.0981 19.4844 36.0241L19.353 36.2637ZM30.7888 36.0462L30.9233 36.0702L30.952 35.9095H30.7888V36.0462ZM29.4862 43.3404L29.6203 43.3672L29.6208 43.3644L29.4862 43.3404ZM28.9218 43.9157L28.9448 44.0505L28.9486 44.0497L28.9218 43.9157ZM28.4985 43.8668L28.443 43.9917L28.4442 43.9923L28.4985 43.8668ZM28.1891 43.5955L28.0724 43.6665L28.0728 43.6673L28.1891 43.5955ZM25.6057 39.3514L25.7225 39.2803L25.6059 39.0887L25.4891 39.2802L25.6057 39.3514ZM23.0169 43.5955L22.9003 43.5243L22.8991 43.5264L23.0169 43.5955ZM22.7619 43.8397L22.6976 43.7191L22.6959 43.7201L22.7619 43.8397ZM21.7307 43.3404L21.8655 43.3179L21.8652 43.3162L21.7307 43.3404ZM20.4173 36.0462V35.9095H20.2538L20.2828 36.0704L20.4173 36.0462ZM21.8501 36.0462L21.9846 36.0218L21.9642 35.9095H21.8501V36.0462ZM22.7836 41.1858L22.6491 41.2102L22.7121 41.5571L22.8994 41.2584L22.7836 41.1858ZM25.0087 37.6364L25.1246 37.709L25.1266 37.7055L25.0087 37.6364ZM25.2584 37.3921L25.1941 37.2715L25.1924 37.2725L25.2584 37.3921ZM26.2082 37.6364L26.3241 37.564L26.3225 37.5615L26.2082 37.6364ZM28.4225 41.1858L28.3065 41.2581L28.4937 41.5582L28.5569 41.2102L28.4225 41.1858ZM29.356 36.0462V35.9095H29.2419L29.2215 36.0218L29.356 36.0462ZM30.6542 36.0222L29.3517 43.3164L29.6208 43.3644L30.9233 36.0702L30.6542 36.0222ZM29.3522 43.3136C29.3283 43.433 29.2754 43.5341 29.1925 43.62L29.3892 43.8098C29.5089 43.6858 29.5862 43.5373 29.6202 43.3672L29.3522 43.3136ZM29.1925 43.62C29.1108 43.7046 29.0128 43.7581 28.895 43.7817L28.9486 44.0497C29.1202 44.0154 29.2683 43.935 29.3892 43.8098L29.1925 43.62ZM28.8988 43.781C28.7757 43.802 28.6615 43.7884 28.5527 43.7414L28.4442 43.9923C28.6032 44.061 28.7712 44.08 28.9448 44.0504L28.8988 43.781ZM28.554 43.742C28.4492 43.6954 28.3671 43.6236 28.3054 43.5237L28.0728 43.6673C28.1631 43.8134 28.2872 43.9225 28.443 43.9917L28.554 43.742ZM28.3058 43.5244L25.7225 39.2803L25.489 39.4224L28.0724 43.6665L28.3058 43.5244ZM25.4891 39.2802L22.9003 43.5243L23.1336 43.6667L25.7224 39.4225L25.4891 39.2802ZM22.8991 43.5264C22.8505 43.6093 22.7841 43.673 22.6976 43.7191L22.8262 43.9603C22.9567 43.8907 23.0604 43.7916 23.1348 43.6646L22.8991 43.5264ZM22.6959 43.7201C22.6117 43.7665 22.5205 43.7899 22.42 43.7899V44.0632C22.5654 44.0632 22.7022 44.0287 22.8279 43.9594L22.6959 43.7201ZM22.42 43.7899C22.2818 43.7899 22.1626 43.7468 22.057 43.6587L21.882 43.8687C22.0369 43.9978 22.218 44.0632 22.42 44.0632V43.7899ZM22.057 43.6587C21.9529 43.572 21.8893 43.4607 21.8655 43.3179L21.5959 43.3629C21.63 43.5675 21.7256 43.7384 21.882 43.8687L22.057 43.6587ZM21.8652 43.3162L20.5518 36.022L20.2828 36.0704L21.5962 43.3646L21.8652 43.3162ZM20.4173 36.1828H21.8501V35.9095H20.4173V36.1828ZM21.7156 36.0706L22.6491 41.2102L22.918 41.1614L21.9846 36.0218L21.7156 36.0706ZM22.8994 41.2584L25.1245 37.709L24.893 37.5638L22.6678 41.1132L22.8994 41.2584ZM25.1266 37.7055C25.1759 37.6214 25.2414 37.5576 25.3244 37.5118L25.1924 37.2725C25.0656 37.3424 24.9646 37.4415 24.8909 37.5673L25.1266 37.7055ZM25.3227 37.5127C25.4115 37.4654 25.5052 37.442 25.6057 37.442V37.1686C25.4603 37.1686 25.3224 37.2031 25.1941 37.2716L25.3227 37.5127ZM25.6057 37.442C25.7063 37.442 25.7975 37.4654 25.8816 37.5118L26.0137 37.2725C25.888 37.2031 25.7512 37.1686 25.6057 37.1686V37.442ZM25.8816 37.5118C25.9661 37.5584 26.0367 37.6241 26.0939 37.7113L26.3225 37.5615C26.2421 37.4388 26.139 37.3416 26.0137 37.2725L25.8816 37.5118ZM26.0922 37.7087L28.3065 41.2581L28.5384 41.1135L26.3241 37.564L26.0922 37.7087ZM28.5569 41.2102L29.4904 36.0706L29.2215 36.0218L28.288 41.1614L28.5569 41.2102ZM29.356 36.1828H30.7888V35.9095H29.356V36.1828ZM37.8985 40.5399L38.0291 40.58L38.0293 40.5794L37.8985 40.5399ZM37.562 41.1695L37.4551 41.0844L37.4549 41.0846L37.562 41.1695ZM36.9595 41.6525L36.8963 41.5314L36.8956 41.5318L36.9595 41.6525ZM33.5132 41.8479H33.3766V41.9846H33.5132V41.8479ZM33.5132 40.5074V40.3707H33.3766V40.5074H33.5132ZM36.5037 40.3337L36.6049 40.4255L36.6063 40.4239L36.5037 40.3337ZM36.4819 39.4599L36.3902 39.5612L36.3917 39.5626L36.4819 39.4599ZM33.0682 39.4816L33.1695 39.5734L33.1709 39.5718L33.0682 39.4816ZM33.0845 42.3255L32.9927 42.4268L32.9943 42.4282L33.0845 42.3255ZM36.0586 42.4829H36.1953V42.3462H36.0586V42.4829ZM36.0586 43.8289V43.9655H36.1953V43.8289H36.0586ZM32.8783 43.7257L32.8382 43.8564L32.8388 43.8566L32.8783 43.7257ZM32.2487 43.3947L32.1626 43.5008L32.1648 43.5026L32.2487 43.3947ZM31.7657 42.7923L31.6445 42.8555L31.6449 42.8562L31.7657 42.7923ZM31.6734 39.2754L31.8041 39.3154L31.8042 39.3149L31.6734 39.2754ZM32.0045 38.6458L31.8976 38.5607L31.8974 38.561L32.0045 38.6458ZM32.6069 38.1574L32.5437 38.0362L32.543 38.0366L32.6069 38.1574ZM36.6882 38.0651L36.6481 38.1958L36.6487 38.196L36.6882 38.0651ZM37.3177 38.4016L37.2316 38.5078L37.2338 38.5095L37.3177 38.4016ZM37.8062 39.004L37.685 39.0673L37.6854 39.068L37.8062 39.004ZM37.8649 39.905C37.8649 40.0844 37.8333 40.2827 37.7676 40.5005L38.0293 40.5794C38.1011 40.3414 38.1382 40.1163 38.1382 39.905H37.8649ZM37.7678 40.4999C37.7044 40.7068 37.6007 40.9015 37.4551 41.0844L37.6689 41.2546C37.8344 41.0467 37.955 40.8217 38.0291 40.58L37.7678 40.4999ZM37.4549 41.0846C37.3165 41.2592 37.1315 41.4087 36.8963 41.5314L37.0228 41.7737C37.2869 41.6359 37.5035 41.4633 37.6691 41.2544L37.4549 41.0846ZM36.8956 41.5318C36.6739 41.6491 36.3969 41.7113 36.0586 41.7113V41.9846C36.4295 41.9846 36.7531 41.9165 37.0235 41.7733L36.8956 41.5318ZM36.0586 41.7113H33.5132V41.9846H36.0586V41.7113ZM33.6499 41.8479V40.5074H33.3766V41.8479H33.6499ZM33.5132 40.644H36.0586V40.3707H33.5132V40.644ZM36.0586 40.644C36.2795 40.644 36.4683 40.5762 36.6049 40.4255L36.4024 40.2419C36.3291 40.3228 36.2213 40.3707 36.0586 40.3707V40.644ZM36.6063 40.4239C36.7353 40.2772 36.7977 40.0977 36.7977 39.8941H36.5244C36.5244 40.0379 36.4819 40.1514 36.401 40.2435L36.6063 40.4239ZM36.7977 39.8941C36.7977 39.6773 36.726 39.4924 36.5722 39.3573L36.3917 39.5626C36.4767 39.6373 36.5244 39.7419 36.5244 39.8941H36.7977ZM36.5737 39.3587C36.4311 39.2294 36.2566 39.1659 36.0586 39.1659V39.4392C36.1936 39.4392 36.3013 39.4806 36.3902 39.5612L36.5737 39.3587ZM36.0586 39.1659H33.5132V39.4392H36.0586V39.1659ZM33.5132 39.1659C33.291 39.1659 33.1018 39.2364 32.9656 39.3914L33.1709 39.5718C33.2445 39.488 33.3519 39.4392 33.5132 39.4392V39.1659ZM32.9669 39.3899C32.8366 39.5336 32.7742 39.7123 32.7742 39.9158H33.0475C33.0475 39.772 33.0899 39.6612 33.1695 39.5734L32.9669 39.3899ZM32.7742 39.9158V41.8859H33.0475V39.9158H32.7742ZM32.7742 41.8859C32.7742 42.1041 32.8426 42.2907 32.9927 42.4268L33.1763 42.2242C33.0948 42.1505 33.0475 42.044 33.0475 41.8859H32.7742ZM32.9943 42.4282C33.141 42.5571 33.3205 42.6196 33.5241 42.6196V42.3462C33.3803 42.3462 33.2668 42.3038 33.1747 42.2229L32.9943 42.4282ZM33.5241 42.6196H36.0586V42.3462H33.5241V42.6196ZM35.922 42.4829V43.8289H36.1953V42.4829H35.922ZM36.0586 43.6922H33.5132V43.9655H36.0586V43.6922ZM33.5132 43.6922C33.3338 43.6922 33.1356 43.6606 32.9177 43.5949L32.8388 43.8566C33.0769 43.9284 33.302 43.9655 33.5132 43.9655V43.6922ZM32.9183 43.5951C32.7107 43.5315 32.5156 43.4291 32.3326 43.2868L32.1648 43.5026C32.3726 43.6641 32.5971 43.7825 32.8382 43.8564L32.9183 43.5951ZM32.3348 43.2886C32.159 43.1459 32.0092 42.9602 31.8864 42.7283L31.6449 42.8562C31.7827 43.1164 31.9548 43.3322 32.1626 43.5008L32.3348 43.2886ZM31.8868 42.729C31.7691 42.5033 31.7069 42.224 31.7069 41.8859H31.4336C31.4336 42.2569 31.5018 42.5819 31.6445 42.8555L31.8868 42.729ZM31.7069 41.8859V39.905H31.4336V41.8859H31.7069ZM31.7069 39.905C31.7069 39.7256 31.7385 39.5293 31.8041 39.3154L31.5427 39.2354C31.4708 39.4701 31.4336 39.6936 31.4336 39.905H31.7069ZM31.8042 39.3149C31.8679 39.1039 31.97 38.9094 32.1116 38.7307L31.8974 38.561C31.735 38.7658 31.6164 38.991 31.5426 39.2359L31.8042 39.3149ZM32.1114 38.731C32.254 38.5519 32.4395 38.4006 32.6708 38.2782L32.543 38.0366C32.2822 38.1746 32.0661 38.349 31.8976 38.5607L32.1114 38.731ZM32.6701 38.2785C32.8958 38.1608 33.1751 38.0987 33.5132 38.0987V37.8253C33.1422 37.8253 32.8173 37.8935 32.5437 38.0362L32.6701 38.2785ZM33.5132 38.0987H36.0586V37.8253H33.5132V38.0987ZM36.0586 38.0987C36.238 38.0987 36.4343 38.1302 36.6481 38.1958L36.7282 37.9345C36.4934 37.8625 36.27 37.8253 36.0586 37.8253V38.0987ZM36.6487 38.196C36.859 38.2594 37.0532 38.3629 37.2316 38.5077L37.4038 38.2955C37.1988 38.1291 36.9732 38.0083 36.7276 37.9343L36.6487 38.196ZM37.2338 38.5095C37.4117 38.6479 37.5626 38.8326 37.685 39.0672L37.9274 38.9408C37.7893 38.6762 37.6145 38.4593 37.4016 38.2937L37.2338 38.5095ZM37.6854 39.068C37.8028 39.2897 37.8649 39.5667 37.8649 39.905H38.1382C38.1382 39.534 38.0701 39.2105 37.927 38.9401L37.6854 39.068ZM45.3718 42.2712L45.2383 42.2419L45.2376 42.2451L45.3718 42.2712ZM45.2307 42.7163L45.3553 42.7724L45.3558 42.7712L45.2307 42.7163ZM44.9756 43.1342L44.868 43.0499L44.8666 43.0517L44.9756 43.1342ZM44.6011 43.4924L44.6795 43.6043L44.68 43.6039L44.6011 43.4924ZM40.4764 43.7854L40.4471 43.919L40.4502 43.9196L40.4764 43.7854ZM40.0314 43.6389L39.9753 43.7635L39.9764 43.764L40.0314 43.6389ZM39.6135 43.3893L39.5292 43.4968L39.531 43.4982L39.6135 43.3893ZM39.2553 43.0148L39.1424 43.0919L39.1446 43.095L39.2553 43.0148ZM39.011 42.5046L38.8807 42.5456L38.8809 42.5463L39.011 42.5046ZM38.9188 35.4818V35.3451H38.7821V35.4818H38.9188ZM40.3299 35.4818H40.4665V35.3451H40.3299V35.4818ZM40.4927 42.2658L40.3977 42.3641L40.3994 42.3657L40.4927 42.2658ZM43.8576 42.2604L43.7592 42.1654L43.7576 42.1673L43.8576 42.2604ZM43.8521 39.5251L43.7572 39.6234L43.759 39.6251L43.8521 39.5251ZM40.8997 39.3731H40.7631V39.5097H40.8997V39.3731ZM40.8997 37.962V37.8253H40.7631V37.962H40.8997ZM43.8684 38.0108L43.8391 38.1444L43.8423 38.145L43.8684 38.0108ZM44.308 38.152L44.252 38.2766L44.2531 38.2771L44.308 38.152ZM44.7314 38.407L44.647 38.5146L44.6489 38.516L44.7314 38.407ZM45.0841 38.7815L44.9713 38.8586L44.9722 38.8599L45.0841 38.7815ZM45.284 41.8479C45.284 41.9707 45.269 42.102 45.2383 42.2419L45.5053 42.3005C45.5397 42.1438 45.5573 41.9929 45.5573 41.8479H45.284ZM45.2376 42.2451C45.2108 42.3828 45.1669 42.5216 45.1055 42.6613L45.3558 42.7712C45.4247 42.6143 45.4749 42.4563 45.5059 42.2974L45.2376 42.2451ZM45.106 42.6602C45.0458 42.7942 44.9666 42.9241 44.868 43.0499L45.0831 43.2185C45.1944 43.0765 45.2853 42.9278 45.3553 42.7724L45.106 42.6602ZM44.8666 43.0517C44.7744 43.1735 44.66 43.2833 44.5222 43.3808L44.68 43.6039C44.8389 43.4916 44.9741 43.3626 45.0846 43.2166L44.8666 43.0517ZM44.5227 43.3804C44.3907 43.4728 44.2351 43.5486 44.0546 43.6065L44.1381 43.8667C44.3411 43.8016 44.5221 43.7145 44.6795 43.6043L44.5227 43.3804ZM44.0546 43.6065C43.8788 43.6629 43.6761 43.6922 43.4451 43.6922V43.9655C43.6989 43.9655 43.9304 43.9333 44.1381 43.8667L44.0546 43.6065ZM43.4451 43.6922H40.8997V43.9655H43.4451V43.6922ZM40.8997 43.6922C40.7757 43.6922 40.6434 43.6788 40.5026 43.6513L40.4502 43.9196C40.6061 43.95 40.756 43.9655 40.8997 43.9655V43.6922ZM40.5057 43.652C40.3667 43.6214 40.2269 43.5755 40.0863 43.5138L39.9764 43.764C40.1325 43.8325 40.2894 43.8843 40.4471 43.9189L40.5057 43.652ZM40.0874 43.5143C39.9526 43.4536 39.8221 43.3758 39.6959 43.2803L39.531 43.4982C39.6726 43.6054 39.8207 43.694 39.9753 43.7635L40.0874 43.5143ZM39.6978 43.2817C39.5744 43.185 39.4638 43.0695 39.3659 42.9346L39.1446 43.095C39.2566 43.2495 39.3848 43.3836 39.5292 43.4968L39.6978 43.2817ZM39.3681 42.9377C39.2751 42.8015 39.1991 42.6436 39.1412 42.4629L38.8809 42.5463C38.946 42.7492 39.0328 42.9314 39.1424 43.0918L39.3681 42.9377ZM39.1414 42.4636C39.0848 42.2836 39.0554 42.0789 39.0554 41.8479H38.7821C38.7821 42.1018 38.8143 42.3348 38.8807 42.5456L39.1414 42.4636ZM39.0554 41.8479V35.4818H38.7821V41.8479H39.0554ZM38.9188 35.6184H40.3299V35.3451H38.9188V35.6184ZM40.1932 35.4818V41.8479H40.4665V35.4818H40.1932ZM40.1932 41.8479C40.1932 42.0526 40.2584 42.2295 40.3977 42.3641L40.5877 42.1676C40.5098 42.0923 40.4665 41.9906 40.4665 41.8479H40.1932ZM40.3994 42.3657C40.5358 42.493 40.7059 42.5544 40.8997 42.5544V42.2811C40.7679 42.2811 40.6666 42.2412 40.5859 42.1659L40.3994 42.3657ZM40.8997 42.5544H43.4451V42.2811H40.8997V42.5544ZM43.4451 42.5544C43.6507 42.5544 43.8282 42.4925 43.9576 42.3535L43.7576 42.1673C43.6916 42.2381 43.5941 42.2811 43.4451 42.2811V42.5544ZM43.9559 42.3553C44.0859 42.2207 44.1462 42.0471 44.1462 41.8479H43.8729C43.8729 41.9889 43.8319 42.0902 43.7593 42.1655L43.9559 42.3553ZM44.1462 41.8479V39.9375H43.8729V41.8479H44.1462ZM44.1462 39.9375C44.1462 39.7319 44.0843 39.5545 43.9453 39.425L43.759 39.6251C43.8298 39.691 43.8729 39.7885 43.8729 39.9375H44.1462ZM43.9471 39.4267C43.813 39.2973 43.6416 39.2364 43.4451 39.2364V39.5097C43.5815 39.5097 43.6814 39.5502 43.7572 39.6234L43.9471 39.4267ZM43.4451 39.2364H40.8997V39.5097H43.4451V39.2364ZM41.0364 39.3731V37.962H40.7631V39.3731H41.0364ZM40.8997 38.0987H43.4451V37.8253H40.8997V38.0987ZM43.4451 38.0987C43.5679 38.0987 43.6992 38.1136 43.8391 38.1443L43.8977 37.8774C43.741 37.843 43.59 37.8253 43.4451 37.8253V38.0987ZM43.8423 38.145C43.9798 38.1718 44.1163 38.2155 44.252 38.2766L44.3641 38.0273C44.2103 37.9581 44.0538 37.9078 43.8946 37.8767L43.8423 38.145ZM44.2531 38.2771C44.3904 38.3374 44.5218 38.4164 44.6471 38.5146L44.8157 38.2995C44.6732 38.1878 44.5223 38.0968 44.363 38.0268L44.2531 38.2771ZM44.6489 38.516C44.7702 38.6078 44.8777 38.7216 44.9713 38.8586L45.197 38.7044C45.0879 38.5448 44.9603 38.4089 44.8138 38.2981L44.6489 38.516ZM44.9722 38.8599C45.0646 38.9919 45.1403 39.1475 45.1982 39.328L45.4585 39.2445C45.3934 39.0415 45.3063 38.8605 45.1961 38.7031L44.9722 38.8599ZM45.1982 39.328C45.2546 39.5038 45.284 39.7065 45.284 39.9375H45.5573C45.5573 39.6837 45.5251 39.4522 45.4585 39.2445L45.1982 39.328ZM45.284 39.9375V41.8479H45.5573V39.9375H45.284Z" fill="white"/>
<path fill-rule="evenodd" clip-rule="evenodd" d="M25.8878 27.0314C26.7925 29.9455 29.8882 31.5745 32.8023 30.6698C35.7165 29.7651 37.3455 26.6694 36.4408 23.7552C35.5361 20.8411 32.4403 19.2121 29.5262 20.1168C26.6121 21.0215 24.9831 24.1172 25.8878 27.0314ZM33.0709 31.5348C32.0229 31.8602 30.9547 31.904 29.9478 31.7091L12.7334 31.0919L26.8164 20.6532C27.4951 20.0298 28.3191 19.5432 29.2577 19.2518C32.6495 18.1988 36.2528 20.0949 37.3058 23.4867C38.3588 26.8786 36.4627 30.4818 33.0709 31.5348ZM26.4061 26.8702C27.2218 29.4977 30.0131 30.9665 32.6406 30.1508C35.2681 29.3351 36.7368 26.5438 35.9211 23.9163C35.1054 21.2888 32.3142 19.8201 29.6867 20.6358C27.0592 21.4515 25.5905 24.2427 26.4061 26.8702Z" fill="white"/>
<path fill-rule="evenodd" clip-rule="evenodd" d="M21.6453 18.7541C23.6515 20.1931 26.4443 19.7334 27.8833 17.7272C29.3223 15.7211 28.8626 12.9283 26.8564 11.4893C24.8503 10.0503 22.0575 10.51 20.6184 12.5161C19.1794 14.5223 19.6392 17.3151 21.6453 18.7541ZM28.4788 18.1544C27.9608 18.8765 27.292 19.4265 26.5463 19.7922L15.1378 27.7948L19.1324 14.1804C19.2665 13.4484 19.5605 12.7338 20.023 12.089C21.6979 9.75398 24.9486 9.21887 27.2836 10.8938C29.6186 12.5687 30.1537 15.8194 28.4788 18.1544ZM21.9019 18.3968C23.7107 19.6942 26.2288 19.2797 27.5263 17.4709C28.8238 15.6621 28.4092 13.1439 26.6004 11.8465C24.7916 10.549 22.2735 10.9635 20.976 12.7723C19.6785 14.5812 20.0931 17.0993 21.9019 18.3968Z" fill="white"/>
<path fill-rule="evenodd" clip-rule="evenodd" d="M15.1606 14.6661C17.1276 14.6661 18.7221 13.0715 18.7221 11.1046C18.7221 9.13762 17.1276 7.54308 15.1606 7.54308C13.1936 7.54308 11.5991 9.13762 11.5991 11.1046C11.5991 13.0715 13.1936 14.6661 15.1606 14.6661ZM19.306 11.1046C19.306 11.812 19.1288 12.478 18.8163 13.0607L15.1463 23.5407L11.4109 12.8742C11.1572 12.3375 11.0153 11.7376 11.0153 11.1046C11.0153 8.81516 12.8712 6.95923 15.1606 6.95923C17.45 6.95923 19.306 8.81516 19.306 11.1046ZM15.1589 14.3134C16.9317 14.3134 18.3689 12.8762 18.3689 11.1034C18.3689 9.33056 16.9317 7.89339 15.1589 7.89339C13.3861 7.89339 11.9489 9.33056 11.9489 11.1034C11.9489 12.8762 13.3861 14.3134 15.1589 14.3134Z" fill="white"/>
</svg>
