<svg xmlns="http://www.w3.org/2000/svg" width="95" height="87" fill="none"><path stroke="url(#a)" stroke-opacity=".3" stroke-width="1.10747" d="M44.4224 1.59849c1.7133-.98915 3.8241-.98915 5.5374 0L74.3831 15.6993c1.7133.9892 2.7687 2.8172 2.7687 4.7955v28.2017c0 1.9783-1.0554 3.8063-2.7687 4.7954L49.9598 67.5928c-1.7133.9891-3.8241.9891-5.5374 0L19.9991 53.4919c-1.7133-.9891-2.7687-2.8171-2.7687-4.7954V20.4948c0-1.9783 1.0554-3.8063 2.7687-4.7955L44.4224 1.59849Z"/><path fill="url(#b)" fill-opacity=".2" d="M45.2644 11.6289c1.1924-.6884 2.6615-.6884 3.8539 0l16.9987 9.8142c1.1924.6884 1.927 1.9607 1.927 3.3376v19.6284c0 1.3769-.7346 2.6492-1.927 3.3376l-16.9987 9.8142c-1.1924.6885-2.6615.6885-3.8539 0l-16.9987-9.8142c-1.1924-.6884-1.927-1.9607-1.927-3.3376V24.7807c0-1.3769.7346-2.6492 1.927-3.3376l16.9987-9.8142Z"/><g clip-path="url(#c)"><path fill="#7952B3" fill-rule="evenodd" d="M39.2626 23.2943c-1.5483 0-2.6931 1.355-2.6411 2.8231.0486 1.4126-.0147 3.24-.4747 4.7307-.4633 1.494-1.2431 2.441-2.5179 2.5631v1.3731c1.2748.1209 2.0557 1.068 2.5168 2.5631.4611 1.4906.5244 3.318.4746 4.7296-.0508 1.4691 1.094 2.8242 2.6423 2.8242h15.8579c1.5482 0 2.6931-1.3551 2.6411-2.8242-.0486-1.4116.0147-3.239.4746-4.7296.4622-1.4951 1.2409-2.4411 2.5157-2.5631v-1.3731c-1.2748-.1221-2.0535-1.0691-2.5157-2.5631-.4599-1.4918-.5232-3.3192-.4746-4.7307.052-1.4692-1.094-2.8231-2.6411-2.8231H39.2626ZM52.016 36.5947c0 2.023-1.5087 3.2491-4.0119 3.2491h-4.2617c-.122 0-.239-.0484-.3253-.1347a.45997.45997 0 0 1-.1347-.3252V28.8104a.46035.46035 0 0 1 .1351-.3245.46026.46026 0 0 1 .3249-.1343h4.238c2.0873 0 3.4581 1.1301 3.4581 2.8671 0 1.2183-.9221 2.3089-2.0963 2.501v.0633c1.5991.1752 2.675 1.2827 2.675 2.8117h-.0012Zm-4.4753-6.7864H45.111v3.4334h2.0466c1.5822 0 2.4547-.6374 2.4547-1.7766 0-1.0668-.7505-1.6568-2.0716-1.6568Zm-2.4297 4.7952v3.7825h2.5201c1.6466 0 2.5202-.6611 2.5202-1.9031 0-1.2432-.8973-1.8794-2.6264-1.8794H45.111Z" clip-rule="evenodd"/></g><path fill="#A1A1A1" d="M10.2332 80.1918c0 .2031-.036.421-.108.6538-.0677.2327-.18192.4485-.34273.6474-.15657.1989-.36182.3661-.61572.5015-.25391.1312-.56494.1968-.93311.1968H1.96851c-.11849 0-.22852-.0212-.33008-.0635-.10156-.0423-.19043-.0994-.2666-.1714-.07194-.0762-.12907-.165-.17139-.2666-.04232-.1015-.06348-.2116-.06348-.3301v-7.4394c0-.1143.02116-.2222.06348-.3237.04232-.1016.09945-.1905.17139-.2666.07617-.0762.16504-.1355.2666-.1778.10156-.0423.21159-.0635.33008-.0635h5.52246c.20312 0 .42106.036.65381.108.23274.0719.44856.1883.64746.3491.20312.1566.37028.3618.50146.6157.13542.2539.20313.5649.20313.9331v.311c0 .292-.04867.6073-.146.9458-.09733.3344-.25391.6517-.46973.9522.1862.1142.3597.2518.52051.4126.16504.1608.30892.347.43164.5586.12272.2116.22005.4507.29195.7173.072.2666.108.5607.108.8823v.3174Zm-1.65044-.3174c0-.2158-.03385-.4084-.10156-.5776-.06771-.1735-.16292-.3217-.28564-.4444-.12272-.1227-.27084-.2158-.44434-.2793-.1735-.0677-.36816-.1015-.58398-.1015H3.44751v-1.6631h2.97705c.21582 0 .41048-.0318.58398-.0952.17351-.0678.32162-.163.44434-.2857s.21582-.2687.2793-.438c.06771-.1735.10156-.3681.10156-.584v-.311c0-.237-.11426-.3555-.34277-.3555H2.78735v5.8018h5.44629c.02962 0 .0656-.0021.10791-.0064.04232-.0042.08041-.0169.11426-.038.03385-.0212.06348-.0572.08887-.108.02539-.0507.03808-.1206.03808-.2094v-.3047Zm12.64454-1.3648c0 .5544-.0952 1.0643-.2856 1.5298-.1905.4655-.455.8675-.7935 1.2061-.3385.3385-.7406.603-1.2061.7934-.4612.1862-.9648.2793-1.5107.2793H15.197c-.5459 0-1.0516-.0931-1.5171-.2793-.4655-.1904-.8675-.4549-1.206-.7934-.3386-.3386-.6052-.7406-.7998-1.2061-.1905-.4655-.2857-.9754-.2857-1.5298v-1.7392c0-.5501.0952-1.058.2857-1.5235.1946-.4697.4612-.8717.7998-1.206.3385-.3385.7405-.603 1.206-.7935.4655-.1904.9712-.2856 1.5171-.2856h2.2344c.5459 0 1.0495.0952 1.5107.2856.4655.1905.8676.455 1.2061.7935.3385.3343.603.7363.7935 1.206.1904.4655.2856.9734.2856 1.5235v1.7392Zm-1.6504-1.7392c0-.3259-.0529-.62-.1587-.8823-.1015-.2666-.2475-.493-.438-.6792-.1862-.1905-.4126-.3365-.6792-.438-.2623-.1058-.5522-.1587-.8696-.1587H15.197c-.3216 0-.6157.0529-.8823.1587-.2624.1015-.4888.2475-.6792.438-.1904.1862-.3385.4126-.4443.6792-.1016.2623-.1524.5564-.1524.8823v1.7392c0 .3259.0508.6221.1524.8887.1058.2624.2539.4888.4443.6792.1904.1862.4168.3322.6792.438.2666.1016.5607.1523.8823.1523h2.2217c.3216 0 .6136-.0507.876-.1523.2666-.1058.4951-.2518.6855-.438.1905-.1904.3365-.4168.438-.6792.1058-.2666.1587-.5628.1587-.8887v-1.7392Zm12.835 1.7392c0 .5544-.0952 1.0643-.2857 1.5298-.1904.4655-.4549.8675-.7934 1.2061-.3386.3385-.7406.603-1.2061.7934-.4613.1862-.9648.2793-1.5107.2793h-2.2344c-.5459 0-1.0516-.0931-1.5171-.2793-.4655-.1904-.8675-.4549-1.2061-.7934-.3385-.3386-.6051-.7406-.7998-1.2061-.1904-.4655-.2856-.9754-.2856-1.5298v-1.7392c0-.5501.0952-1.058.2856-1.5235.1947-.4697.4613-.8717.7998-1.206.3386-.3385.7406-.603 1.2061-.7935.4655-.1904.9712-.2856 1.5171-.2856h2.2344c.5459 0 1.0494.0952 1.5107.2856.4655.1905.8675.455 1.2061.7935.3385.3343.603.7363.7934 1.206.1905.4655.2857.9734.2857 1.5235v1.7392Zm-1.6504-1.7392c0-.3259-.0529-.62-.1587-.8823-.1016-.2666-.2476-.493-.438-.6792-.1862-.1905-.4126-.3365-.6792-.438-.2624-.1058-.5523-.1587-.8696-.1587h-2.2344c-.3216 0-.6157.0529-.8823.1587-.2624.1015-.4888.2475-.6792.438-.1905.1862-.3386.4126-.4444.6792-.1015.2623-.1523.5564-.1523.8823v1.7392c0 .3259.0508.6221.1523.8887.1058.2624.2539.4888.4444.6792.1904.1862.4168.3322.6792.438.2666.1016.5607.1523.8823.1523h2.2217c.3216 0 .6136-.0507.8759-.1523.2666-.1058.4952-.2518.6856-.438.1904-.1904.3364-.4168.438-.6792.1058-.2666.1587-.5628.1587-.8887v-1.7392Zm11.3813-2.0313h-3.6372v7.4522h-1.6504v-7.4522h-3.6435v-1.6504h8.9311v1.6504Zm9.9658 4.7735c0 .3258-.0423.6199-.1269.8823-.0804.2581-.1883.4867-.3237.6855-.1355.1989-.2941.3682-.4761.5079-.182.1396-.3703.2539-.565.3427-.1946.0889-.3935.1545-.5966.1968-.1989.0423-.3872.0635-.565.0635h-6.3667v-1.6504h6.3667c.3174 0 .5628-.0931.7364-.2793.1777-.1862.2666-.4359.2666-.749 0-.1524-.0233-.292-.0699-.419-.0465-.1269-.1142-.237-.2031-.3301-.0846-.093-.1904-.165-.3174-.2158-.1227-.0508-.2602-.0761-.4126-.0761h-3.7959c-.2666 0-.5543-.0466-.8633-.1397-.3089-.0973-.5966-.2518-.8632-.4634-.2624-.2116-.4825-.4887-.6602-.8315-.1735-.3428-.2602-.7617-.2602-1.2568 0-.4952.0867-.912.2602-1.2505.1777-.3428.3978-.62.6602-.8316.2666-.2158.5543-.3703.8632-.4634.309-.0973.5967-.146.8633-.146h5.6177v1.6504h-5.6177c-.3131 0-.5586.0953-.7363.2857-.1735.1904-.2603.4422-.2603.7554 0 .3173.0868.5691.2603.7553.1777.182.4232.273.7363.273h3.8086c.1778.0042.3661.0296.565.0761.1989.0424.3956.1101.5903.2032.1989.0931.3872.2116.5649.3554.1778.1397.3343.309.4698.5078.1396.1989.2496.4275.33.6856.0804.2581.1206.5501.1206.876Zm9.4961-4.7735h-3.6372v7.4522h-1.6504v-7.4522h-3.6435v-1.6504h8.9311v1.6504Zm10.315 1.4092c0 .3766-.0466.7131-.1397 1.0093-.0931.2962-.22.5586-.3808.7871-.1566.2243-.3386.4168-.5459.5776-.2074.1608-.4253.2941-.6538.3999-.2243.1016-.4528.1757-.6856.2222-.2285.0466-.4443.0698-.6474.0698l3.4467 2.9771h-2.5517l-3.4405-2.9771h-1.187v-1.6504h3.7325c.2073-.0169.3956-.0592.5649-.1269.1735-.072.3216-.1672.4443-.2857.127-.1184.2243-.2602.292-.4252.0677-.1693.1016-.3619.1016-.5777v-1.041c0-.0931-.0127-.1629-.0381-.2095-.0212-.0508-.0508-.0867-.0889-.1079-.0338-.0254-.0719-.0402-.1142-.0444-.0381-.0042-.0741-.0064-.1079-.0064h-5.4463v7.4522h-1.6504v-8.271c0-.1143.0211-.2222.0635-.3237.0423-.1016.0994-.1905.1713-.2666.0762-.0762.1651-.1355.2667-.1778.1015-.0423.2115-.0635.33-.0635h6.2652c.3681 0 .6792.0678.9331.2032.2539.1312.4591.2983.6157.5014.1608.1989.2751.4147.3428.6475.0719.2327.1079.4507.1079.6538v1.0537Zm10.5879 6.043h-1.6504v-2.2344h-5.8018v2.2344H73.405V77.64c0-.6644.1143-1.2759.3428-1.8345.2285-.5586.5459-1.0389.9522-1.4409.4062-.402.8865-.7151 1.4409-.9394.5543-.2243 1.1595-.3365 1.8154-.3365h3.7197c.1143 0 .2222.0212.3238.0635.1015.0423.1904.1016.2666.1778.0761.0761.1354.165.1777.2666.0423.1015.0635.2094.0635.3237v8.271Zm-7.4522-3.8848h5.8018v-3.5674h-2.9009c-.0508 0-.1587.0085-.3237.0254-.1608.0127-.3492.0487-.565.1079-.2116.0593-.4358.1503-.6728.273-.237.1227-.4549.292-.6538.5078-.1989.2158-.364.4867-.4952.8125-.1269.3216-.1904.7131-.1904 1.1743v.6665Zm18.4463-1.4092c0 .3767-.0465.7131-.1396 1.0093-.0931.2962-.2201.5586-.3809.7871-.1566.2243-.3385.4169-.5459.5777-.2074.1608-.4253.292-.6538.3935-.2243.1016-.4528.1756-.6856.2222-.2285.0465-.4443.0698-.6474.0698h-3.7324v-1.6504h3.7324c.2116-.0169.402-.0592.5713-.1269.1735-.072.3216-.1672.4443-.2857.1227-.1185.2179-.2602.2857-.4253.0677-.1692.1015-.3597.1015-.5713v-.749c-.0211-.2073-.0656-.3978-.1333-.5713-.0677-.1735-.1608-.3216-.2793-.4443-.1142-.1227-.2539-.2179-.4189-.2857-.1651-.0719-.3555-.1079-.5713-.1079h-3.7197c-.2201 0-.3872.0572-.5015.1714-.1143.1143-.1714.2793-.1714.4951v6.7857h-1.6504v-6.7857c0-.4231.0762-.7828.2285-1.0791.1566-.2962.3492-.5353.5777-.7172.2327-.182.4845-.3132.7553-.3936.2709-.0846.5205-.127.7491-.127h3.7324c.3724 0 .7067.0487 1.0029.146.2962.0931.5565.2201.7808.3809.2285.1566.421.3385.5776.5459.1608.2074.292.4253.3936.6538.1058.2243.1819.4528.2285.6856.0465.2285.0698.4443.0698.6474v.749Z"/><defs><linearGradient id="a" x1="12.5955" x2="81.7867" y1="0" y2="69.1913" gradientUnits="userSpaceOnUse"><stop stop-color="#fff"/><stop offset=".76563" stop-color="#fff" stop-opacity="0"/></linearGradient><linearGradient id="b" x1="23.1128" x2="71.2699" y1="10.5164" y2="58.6735" gradientUnits="userSpaceOnUse"><stop stop-color="#fff"/><stop offset=".82813" stop-color="#fff" stop-opacity="0"/></linearGradient><clipPath id="c"><path fill="#fff" d="M33.6296 21.0342h27.123v27.123h-27.123z"/></clipPath></defs></svg>