<svg xmlns="http://www.w3.org/2000/svg" width="70" height="87" fill="none"><path stroke="url(#a)" stroke-opacity=".3" stroke-width="1.10747" d="M32.2093 1.59849c1.7132-.98915 3.8241-.98915 5.5373 0L62.17 15.6993c1.7132.9892 2.7687 2.8172 2.7687 4.7955v28.2017c0 1.9783-1.0554 3.8063-2.7687 4.7954L37.7466 67.5928c-1.7132.9891-3.824.9891-5.5373 0L7.78593 53.4919c-1.71326-.9891-2.76867-2.8171-2.76867-4.7954V20.4948c0-1.9783 1.05541-3.8063 2.76866-4.7955L32.2093 1.59849Z"/><path fill="url(#b)" fill-opacity=".2" d="M33.051 11.6289c1.1924-.6884 2.6615-.6884 3.854 0l16.9986 9.8142c1.1925.6884 1.927 1.9607 1.927 3.3376v19.6284c0 1.3769-.7345 2.6492-1.927 3.3376L36.905 57.5609c-1.1925.6885-2.6616.6885-3.854 0l-16.9987-9.8142c-1.1924-.6884-1.927-1.9607-1.927-3.3376V24.7807c0-1.3769.7346-2.6492 1.927-3.3376l16.9987-9.8142Z"/><g clip-path="url(#c)"><path fill="#42A5F5" d="M23.5962 21.5872h22.7639l-2.5135 23.3743-8.8914 2.6416-8.8427-2.643-2.5163-23.3729Zm18.1858 4.783-13.6063-.0029.2193 2.8412 10.4533.003-.2624 2.9447H31.73l.2485 2.7888h6.3825l-.3776 3.8194-3.0045.8718-3.0504-.8791-.1957-2.2872h-2.6935l.2999 4.1795 5.6397 1.8441 5.5466-1.6575 1.2565-14.4658Z"/></g><path fill="#A1A1A1" d="M29.0869 82.1913h-5.9541c-.1523 0-.3174-.0169-.4951-.0508-.1735-.0381-.347-.0952-.5205-.1714-.1693-.0762-.3322-.1735-.4888-.292-.1566-.1227-.2962-.2687-.4189-.438-.1185-.1735-.2137-.3724-.2857-.5966-.0719-.2286-.1079-.4846-.1079-.7681v-4.4688c0-.1523.0169-.3152.0508-.4887.0381-.1778.0952-.3513.1714-.5205.0762-.1735.1756-.3386.2983-.4952.1227-.1565.2687-.2941.438-.4126.1735-.1227.3724-.22.5967-.2919.2243-.072.4782-.108.7617-.108h5.9541v1.6504h-5.9541c-.2158 0-.3808.0572-.4951.1714-.1143.1143-.1714.2836-.1714.5078v4.4561c0 .2116.0571.3766.1714.4951.1185.1143.2835.1714.4951.1714h5.9541v1.6504Zm10.2705-2.6787c0 .3258-.0423.6199-.1269.8823-.0804.2581-.1883.4867-.3238.6855-.1354.1989-.2941.3682-.476.5079-.182.1396-.3703.2539-.565.3427-.1946.0889-.3935.1545-.5967.1968-.1989.0423-.3872.0635-.5649.0635h-6.3667v-1.6504h6.3667c.3174 0 .5628-.0931.7363-.2793.1778-.1862.2666-.4359.2666-.749 0-.1524-.0232-.292-.0698-.419-.0465-.1269-.1143-.237-.2031-.3301-.0847-.093-.1904-.165-.3174-.2158-.1227-.0508-.2603-.0761-.4126-.0761h-3.7959c-.2666 0-.5544-.0466-.8633-.1397-.3089-.0973-.5967-.2518-.8633-.4634-.2623-.2116-.4824-.4887-.6601-.8315-.1735-.3428-.2603-.7617-.2603-1.2568 0-.4952.0868-.912.2603-1.2505.1777-.3428.3978-.62.6601-.8316.2666-.2158.5544-.3703.8633-.4634.3089-.0973.5967-.146.8633-.146h5.6177v1.6504h-5.6177c-.3131 0-.5586.0953-.7363.2857-.1735.1904-.2603.4422-.2603.7554 0 .3173.0868.5691.2603.7553.1777.182.4232.273.7363.273h3.8086c.1777.0042.366.0296.5649.0761.1989.0424.3957.1101.5904.2032.1989.0931.3872.2116.5649.3554.1777.1397.3343.309.4697.5078.1397.1989.2497.4275.3301.6856s.1206.5501.1206.876Zm10.1182 0c0 .3258-.0423.6199-.127.8823-.0804.2581-.1883.4867-.3237.6855-.1354.1989-.2941.3682-.4761.5079-.1819.1396-.3703.2539-.5649.3427-.1947.0889-.3936.1545-.5967.1968-.1989.0423-.3872.0635-.5649.0635h-6.3667v-1.6504h6.3667c.3173 0 .5628-.0931.7363-.2793.1777-.1862.2666-.4359.2666-.749 0-.1524-.0233-.292-.0698-.419-.0466-.1269-.1143-.237-.2032-.3301-.0846-.093-.1904-.165-.3173-.2158-.1228-.0508-.2603-.0761-.4126-.0761h-3.7959c-.2666 0-.5544-.0466-.8633-.1397-.3089-.0973-.5967-.2518-.8633-.4634-.2624-.2116-.4824-.4887-.6602-.8315-.1735-.3428-.2602-.7617-.2602-1.2568 0-.4952.0867-.912.2602-1.2505.1778-.3428.3978-.62.6602-.8316.2666-.2158.5544-.3703.8633-.4634.3089-.0973.5967-.146.8633-.146h5.6176v1.6504h-5.6176c-.3132 0-.5586.0953-.7364.2857-.1735.1904-.2602.4422-.2602.7554 0 .3173.0867.5691.2602.7553.1778.182.4232.273.7364.273h3.8086c.1777.0042.366.0296.5649.0761.1989.0424.3957.1101.5903.2032.1989.0931.3872.2116.565.3554.1777.1397.3343.309.4697.5078.1397.1989.2497.4275.3301.6856s.1206.5501.1206.876Z"/><defs><linearGradient id="a" x1=".38232" x2="69.5736" y1="0" y2="69.1913" gradientUnits="userSpaceOnUse"><stop stop-color="#fff"/><stop offset=".76563" stop-color="#fff" stop-opacity="0"/></linearGradient><linearGradient id="b" x1="10.8994" x2="59.0565" y1="10.5164" y2="58.6735" gradientUnits="userSpaceOnUse"><stop stop-color="#fff"/><stop offset=".82813" stop-color="#fff" stop-opacity="0"/></linearGradient><clipPath id="c"><path fill="#fff" d="M21.9702 21.5873h26.0159v26.0159H21.9702z"/></clipPath></defs></svg>