<svg xmlns="http://www.w3.org/2000/svg" width="70" height="87" fill="none"><path stroke="url(#a)" stroke-opacity=".3" stroke-width="1.10747" d="M32.4005 1.59849c1.7132-.98915 3.824-.98915 5.5373 0L62.3612 15.6993c1.7132.9892 2.7686 2.8172 2.7686 4.7955v28.2017c0 1.9783-1.0554 3.8063-2.7686 4.7954L37.9378 67.5928c-1.7133.9891-3.8241.9891-5.5373 0L7.97709 53.4919c-1.71325-.9891-2.76867-2.8171-2.76867-4.7954V20.4948c0-1.9783 1.05541-3.8063 2.76866-4.7955L32.4005 1.59849Z"/><path fill="url(#b)" fill-opacity=".2" d="M33.2424 11.6289c1.1924-.6884 2.6615-.6884 3.854 0l16.9986 9.8142c1.1925.6884 1.927 1.9607 1.927 3.3376v19.6284c0 1.3769-.7345 2.6492-1.927 3.3376l-16.9986 9.8142c-1.1925.6885-2.6616.6885-3.854 0l-16.9987-9.8142c-1.1924-.6884-1.927-1.9607-1.927-3.3376V24.7807c0-1.3769.7346-2.6492 1.927-3.3376l16.9987-9.8142Z"/><g clip-path="url(#c)"><path fill="#19BCFE" d="M39.5042 38.9319c2.3947 0 4.336-1.9413 4.336-4.336 0-2.3947-1.9413-4.336-4.336-4.336-2.3947 0-4.336 1.9413-4.336 4.336 0 2.3947 1.9413 4.336 4.336 4.336Z"/><path fill="#09CF83" fill-rule="evenodd" d="M30.8328 47.6042c1.15 0 2.2529-.4568 3.066-1.27.8132-.8131 1.27-1.916 1.27-3.066v-4.3359h-4.336c-1.15 0-2.2528.4568-3.066 1.2699-.8131.8132-1.27 1.9161-1.27 3.066a4.33608 4.33608 0 0 0 4.336 4.336Z" clip-rule="evenodd"/><path fill="#A259FF" fill-rule="evenodd" d="M30.8328 38.9319h4.336v-8.672h-4.336a4.33608 4.33608 0 0 0-4.336 4.336c0 1.1499.4569 2.2528 1.27 3.066.8132.8131 1.916 1.27 3.066 1.27Z" clip-rule="evenodd"/><path fill="#F24E1E" fill-rule="evenodd" d="M30.8328 30.2604h4.336v-8.672h-4.336a4.33608 4.33608 0 0 0-4.336 4.336c0 1.1499.4569 2.2528 1.27 3.066.8132.8131 1.916 1.27 3.066 1.27Z" clip-rule="evenodd"/><path fill="#FF7262" fill-rule="evenodd" d="M39.5042 30.2604h-4.336v-8.672h4.336c1.15 0 2.2528.4568 3.066 1.27.8132.8131 1.27 1.916 1.27 3.066 0 1.1499-.4568 2.2528-1.27 3.066-.8132.8131-1.916 1.27-3.066 1.27Z" clip-rule="evenodd"/></g><path fill="#A1A1A1" d="M19.656 78.4716h-5.2178v-1.6631h5.2178v1.6631Zm.7363-3.7325h-6.6142v7.4522h-1.6504v-8.271c0-.1143.0211-.2222.0635-.3237.0423-.1016.0994-.1905.1713-.2666.0762-.0762.1651-.1355.2667-.1778.1015-.0423.2115-.0635.33-.0635h7.4331v1.6504Zm2.9961 7.4522H21.738v-9.1026h1.6504v9.1026ZM34.3 81.3597c0 .1185-.0211.2286-.0634.3301-.0423.1016-.1016.1904-.1778.2666-.0719.072-.1587.1291-.2602.1714-.1016.0423-.2116.0635-.3301.0635h-5.9541c-.1523 0-.3174-.0169-.4951-.0508-.1735-.0381-.347-.0952-.5205-.1714-.1693-.0762-.3322-.1735-.4888-.292-.1566-.1227-.2962-.2687-.4189-.438-.1185-.1735-.2137-.3724-.2857-.5966-.0719-.2286-.1079-.4846-.1079-.7681v-4.4688c0-.1523.0169-.3152.0508-.4887.0381-.1778.0952-.3513.1714-.5205.0761-.1735.1756-.3386.2983-.4952.1227-.1565.2687-.2941.438-.4126.1735-.1227.3724-.22.5967-.2919.2243-.072.4782-.108.7617-.108h6.7095v1.6504h-6.7095c-.2158 0-.3809.0572-.4951.1714-.1143.1143-.1714.2836-.1714.5078v4.4561c0 .2116.0571.3766.1714.4951.1185.1143.2835.1714.4951.1714h5.1353v-2.0693h-4.3926v-1.6631h5.2114c.1185 0 .2285.0232.3301.0698.1015.0423.1883.1016.2602.1777.0762.0762.1355.1651.1778.2666.0423.0974.0634.2032.0634.3174v3.7197Zm12.3145.8316h-1.6631v-5.4209l-2.9263 5.1479c-.0719.1312-.1735.2307-.3046.2984-.127.0677-.2645.1015-.4126.1015-.1439 0-.2793-.0338-.4063-.1015-.1227-.0677-.22-.1672-.292-.2984l-2.9389-5.1479v5.4209h-1.6504v-8.398c0-.1904.055-.3597.165-.5078.1143-.1481.2624-.2475.4443-.2983.0889-.0212.1778-.0275.2666-.0191.0889.0043.1735.0233.2539.0572.0847.0296.1609.074.2286.1333.0677.055.1248.1227.1713.2031l3.7579 6.5317 3.7578-6.5317c.0973-.1608.2306-.2751.3999-.3428.1735-.0677.3533-.0783.5395-.0317.1778.0508.3238.1502.438.2983.1143.1481.1714.3174.1714.5078v8.398Zm10.8545 0h-1.6504v-2.2344h-5.8018v2.2344h-1.6503V77.64c0-.6644.1142-1.2759.3427-1.8345s.5459-1.0389.9522-1.4409c.4062-.402.8865-.7151 1.4409-.9394.5544-.2243 1.1595-.3365 1.8154-.3365h3.7198c.1142 0 .2221.0212.3237.0635.1015.0423.1904.1016.2666.1778.0762.0761.1354.165.1777.2666.0423.1015.0635.2094.0635.3237v8.271Zm-7.4522-3.8848h5.8018v-3.5674h-2.9009c-.0508 0-.1587.0085-.3237.0254-.1608.0127-.3491.0487-.5649.1079-.2116.0593-.4359.1503-.6729.273-.237.1227-.4549.292-.6538.5078-.1989.2158-.3639.4867-.4951.8125-.127.3216-.1905.7131-.1905 1.1743v.6665Z"/><defs><linearGradient id="a" x1=".57349" x2="69.7648" y1="0" y2="69.1913" gradientUnits="userSpaceOnUse"><stop stop-color="#fff"/><stop offset=".76563" stop-color="#fff" stop-opacity="0"/></linearGradient><linearGradient id="b" x1="11.0908" x2="59.2479" y1="10.5164" y2="58.6735" gradientUnits="userSpaceOnUse"><stop stop-color="#fff"/><stop offset=".82813" stop-color="#fff" stop-opacity="0"/></linearGradient><clipPath id="c"><path fill="#fff" d="M22.1611 21.5873H48.177v26.0159H22.1611z"/></clipPath></defs></svg>