<svg xmlns="http://www.w3.org/2000/svg" width="70" height="87" fill="none"><path stroke="url(#a)" stroke-opacity=".3" stroke-width="1.10747" d="M31.827 1.59849c1.7132-.98915 3.824-.98915 5.5373 0L61.7877 15.6993c1.7132.9892 2.7686 2.8172 2.7686 4.7955v28.2017c0 1.9783-1.0554 3.8063-2.7686 4.7954L37.3643 67.5928c-1.7133.9891-3.8241.9891-5.5373 0L7.4036 53.4919c-1.71325-.9891-2.76866-2.8171-2.76866-4.7954V20.4948c0-1.9783 1.0554-3.8063 2.76866-4.7955L31.827 1.59849Z"/><path fill="url(#b)" fill-opacity=".2" d="M32.6689 11.6289c1.1924-.6884 2.6616-.6884 3.854 0l16.9987 9.8142c1.1924.6884 1.9269 1.9607 1.9269 3.3376v19.6284c0 1.3769-.7345 2.6492-1.9269 3.3376l-16.9987 9.8142c-1.1924.6885-2.6616.6885-3.854 0l-16.9987-9.8142c-1.1924-.6884-1.927-1.9607-1.927-3.3376V24.7807c0-1.3769.7346-2.6492 1.927-3.3376l16.9987-9.8142Z"/><g clip-path="url(#c)"><path fill="#F05133" d="M47.1131 33.4359 35.7539 22.0783a1.67446 1.67446 0 0 0-.5434-.3632 1.67535 1.67535 0 0 0-.6411-.1276c-.22 0-.4379.0434-.6411.1276a1.67488 1.67488 0 0 0-.5435.3632l-2.3577 2.3577 2.9919 2.9919a1.98853 1.98853 0 0 1 2.5817 1.4414 1.9887 1.9887 0 0 1-.0614 1.0951l2.8828 2.8845a1.99103 1.99103 0 0 1 1.3183-.0013c.4268.1494.7901.4396 1.0299.823a1.99007 1.99007 0 0 1-.288 2.471 1.99339 1.99339 0 0 1-1.2142.5781 1.9931 1.9931 0 0 1-1.3051-.3245 1.99331 1.99331 0 0 1-.802-1.0795 1.99325 1.99325 0 0 1 .066-1.3432l-2.6877-2.6894v7.078c.4085.2022.7354.5383.9262.9524.1907.414.2338.8809.1221 1.3228-.1118.442-.3716.8323-.7363 1.1059-.3646.2735-.812.4139-1.2675.3976a1.99315 1.99315 0 0 1-1.236-.4871 1.99362 1.99362 0 0 1-.6555-1.1555 1.99382 1.99382 0 0 1 .2162-1.3108c.2198-.3993.5698-.7113.9918-.8839v-7.143a1.99328 1.99328 0 0 1-.6511-.4323 1.99198 1.99198 0 0 1-.4348-.6495 1.99094 1.99094 0 0 1-.1517-.7667c.0005-.263.053-.5234.1547-.7661l-2.948-2.9495-7.7885 7.7885c-.1556.1555-.279.3402-.3632.5434a1.67347 1.67347 0 0 0-.1276.6411c0 .22.0433.4379.1276.6411.0842.2033.2076.3879.3632.5435l11.3592 11.3592c.1555.1556.3402.279.5434.3632.2033.0842.4211.1276.6411.1276.2201 0 .4379-.0434.6411-.1276.2033-.0842.388-.2076.5435-.3632l11.3055-11.3056c.3139-.3143.4902-.7403.4902-1.1845 0-.4442-.1763-.8702-.4902-1.1846"/></g><path fill="#A1A1A1" d="M32.5361 81.3597c0 .1185-.0211.2286-.0634.3301-.0424.1016-.1016.1904-.1778.2666-.0719.072-.1587.1291-.2602.1714-.1016.0423-.2116.0635-.3301.0635h-5.9541c-.1524 0-.3174-.0169-.4951-.0508-.1735-.0381-.347-.0952-.5205-.1714-.1693-.0762-.3322-.1735-.4888-.292-.1566-.1227-.2962-.2687-.419-.438-.1184-.1735-.2137-.3724-.2856-.5966-.0719-.2286-.1079-.4846-.1079-.7681v-4.4688c0-.1523.0169-.3152.0508-.4887.0381-.1778.0952-.3513.1714-.5205.0761-.1735.1756-.3386.2983-.4952.1227-.1565.2687-.2941.438-.4126.1735-.1227.3724-.22.5967-.2919.2243-.072.4782-.108.7617-.108H32.46v1.6504h-6.7095c-.2158 0-.3809.0572-.4951.1714-.1143.1143-.1714.2836-.1714.5078v4.4561c0 .2116.0571.3766.1714.4951.1185.1143.2835.1714.4951.1714h5.1352v-2.0693h-4.3925v-1.6631h5.2114c.1185 0 .2285.0232.3301.0698.1015.0423.1883.1016.2602.1777.0762.0762.1354.1651.1778.2666.0423.0974.0634.2032.0634.3174v3.7197Zm3.3833.8316H34.269v-9.1026h1.6504v9.1026Zm10.1563-7.4522h-3.6372v7.4522h-1.6504v-7.4522h-3.6436v-1.6504h8.9312v1.6504Z"/><defs><linearGradient id="a" x1="0" x2="69.1913" y1="0" y2="69.1913" gradientUnits="userSpaceOnUse"><stop stop-color="#fff"/><stop offset=".76563" stop-color="#fff" stop-opacity="0"/></linearGradient><linearGradient id="b" x1="10.5173" x2="58.6745" y1="10.5164" y2="58.6735" gradientUnits="userSpaceOnUse"><stop stop-color="#fff"/><stop offset=".82813" stop-color="#fff" stop-opacity="0"/></linearGradient><clipPath id="c"><path fill="#fff" d="M21.5872 21.5873h26.0159v26.0159H21.5872z"/></clipPath></defs></svg>