<svg xmlns="http://www.w3.org/2000/svg" width="70" height="87" fill="none"><path stroke="url(#a)" stroke-opacity=".3" stroke-width="1.10747" d="M32.0181 1.59849c1.7133-.98915 3.8241-.98915 5.5374 0L61.9788 15.6993c1.7133.9892 2.7687 2.8172 2.7687 4.7955v28.2017c0 1.9783-1.0554 3.8063-2.7687 4.7954L37.5555 67.5928c-1.7133.9891-3.8241.9891-5.5374 0L7.59477 53.4919c-1.71326-.9891-2.76867-2.8171-2.76867-4.7954V20.4948c0-1.9783 1.05541-3.8063 2.76866-4.7955L32.0181 1.59849Z"/><path fill="url(#b)" fill-opacity=".2" d="M32.8591 11.6289c1.1924-.6884 2.6615-.6884 3.854 0l16.9986 9.8142c1.1925.6884 1.927 1.9607 1.927 3.3376v19.6284c0 1.3769-.7345 2.6492-1.927 3.3376l-16.9986 9.8142c-1.1925.6885-2.6616.6885-3.854 0l-16.9987-9.8142c-1.1924-.6884-1.927-1.9607-1.927-3.3376V24.7807c0-1.3769.7346-2.6492 1.927-3.3376l16.9987-9.8142Z"/><g clip-path="url(#c)"><path fill="#fff" fill-rule="evenodd" d="M34.7865 21.5875c-7.1869 0-13.0079 5.8211-13.0079 13.008 0 5.756 3.7235 10.6177 8.8942 12.3413.6504.1138.8943-.2764.8943-.6179 0-.3089-.0163-1.3333-.0163-2.4227-3.2683.6016-4.1138-.7968-4.3739-1.5285-.1464-.3739-.7805-1.5284-1.3333-1.8373-.4553-.2439-1.1057-.8456-.0163-.8618 1.0244-.0163 1.7561.9431 2 1.3333 1.1707 1.9675 3.0406 1.4146 3.7885 1.0732.1139-.8456.4553-1.4147.8293-1.7399-2.8943-.3252-5.9186-1.4471-5.9186-6.4226 0-1.4146.504-2.5854 1.3333-3.4959-.1301-.3252-.5854-1.6585.1301-3.4471 0 0 1.0894-.3415 3.5772 1.3333 1.0406-.2927 2.1463-.439 3.2519-.439 1.1057 0 2.2114.1463 3.252.439 2.4878-1.6911 3.5772-1.3333 3.5772-1.3333.7155 1.7886.2602 3.1219.1301 3.4471.8293.9105 1.3333 2.065 1.3333 3.4959 0 4.9918-3.0406 6.0974-5.9349 6.4226.4716.4065.8781 1.187.8781 2.4065 0 1.7398-.0163 3.1382-.0163 3.5772 0 .3415.2439.748.8943.6179a13.02889 13.02889 0 0 0 6.4158-4.7454 13.0292 13.0292 0 0 0 2.4459-7.5959c0-7.1869-5.8211-13.008-13.008-13.008Z" clip-rule="evenodd"/></g><path fill="#A1A1A1" d="M16.2273 81.3597c0 .1185-.0212.2286-.0635.3301-.0423.1016-.1015.1904-.1777.2666-.072.072-.1587.1291-.2603.1714-.1015.0423-.2116.0635-.33.0635H9.44165c-.15234 0-.31738-.0169-.49512-.0508-.1735-.0381-.347-.0952-.5205-.1714-.16928-.0762-.3322-.1735-.48877-.292-.15658-.1227-.29623-.2687-.41895-.438-.11849-.1735-.2137-.3724-.28564-.5966-.07194-.2286-.10791-.4846-.10791-.7681v-4.4688c0-.1523.01692-.3152.05078-.4887.03808-.1778.09521-.3513.17138-.5205.07618-.1735.17562-.3386.29834-.4952.12273-.1565.26872-.2941.43799-.4126.1735-.1227.3724-.22.59668-.2919.22429-.072.47819-.108.76172-.108h6.70945v1.6504H9.44165c-.21582 0-.38086.0572-.49512.1714-.11425.1143-.17138.2836-.17138.5078v4.4561c0 .2116.05713.3766.17138.4951.11849.1143.28353.1714.49512.1714h5.13525v-2.0693h-4.3926v-1.6631h5.2115c.1184 0 .2285.0232.33.0698.1016.0423.1883.1016.2603.1777.0762.0762.1354.1651.1777.2666.0423.0974.0635.2032.0635.3174v3.7197Zm3.3833.8316h-1.6504v-9.1026h1.6504v9.1026Zm10.1562-7.4522h-3.6372v7.4522h-1.6504v-7.4522h-3.6435v-1.6504h8.9311v1.6504Zm2.8819 2.0694h5.7954v-3.7198h1.6504v9.1026h-1.6504v-3.7197h-5.7954v3.7197h-1.6504v-9.1026h1.6504v3.7198Zm18.3003 4.5512c0 .1185-.0212.2286-.0635.3301-.0423.1016-.1016.1904-.1777.2666-.0762.072-.1651.1291-.2666.1714-.1016.0423-.2095.0635-.3238.0635h-3.7197c-.3512 0-.7067-.0381-1.0664-.1143-.3597-.0761-.7088-.1925-1.0474-.3491-.3343-.1608-.6495-.3639-.9458-.6094-.2962-.2454-.5564-.5353-.7807-.8696-.2201-.3385-.3936-.7236-.5205-1.1553-.127-.4358-.1905-.9204-.1905-1.4536v-4.5513h1.6504V77.64c0 .4655.0635.8591.1905 1.1807.1311.3216.2962.5903.4951.8061.1989.2159.4168.3851.6538.5078.237.1228.4612.2137.6728.273.2159.0592.4042.0973.565.1143.165.0126.2729.019.3237.019h2.9009v-7.4522h1.6504v8.271Zm11.0068-1.1679c0 .2031-.036.421-.1079.6538-.0677.2327-.182.4485-.3428.6474-.1565.1989-.3618.3661-.6157.5015-.2539.1312-.5649.1968-.9331.1968h-6.2651c-.1185 0-.2286-.0212-.3301-.0635-.1016-.0423-.1904-.0994-.2666-.1714-.072-.0762-.1291-.165-.1714-.2666-.0423-.1015-.0635-.2116-.0635-.3301v-7.4394c0-.1143.0212-.2222.0635-.3237.0423-.1016.0994-.1905.1714-.2666.0762-.0762.165-.1355.2666-.1778.1015-.0423.2116-.0635.3301-.0635h5.5224c.2031 0 .4211.036.6538.108.2328.0719.4486.1883.6475.3491.2031.1566.3703.3618.5015.6157.1354.2539.2031.5649.2031.9331v.311c0 .292-.0487.6073-.146.9458-.0973.3344-.2539.6517-.4697.9522.1862.1142.3597.2518.5205.4126.165.1608.3089.347.4316.5586.1227.2116.2201.4507.292.7173.0719.2666.1079.5607.1079.8823v.3174Zm-1.6504-.3174c0-.2158-.0338-.4084-.1015-.5776-.0678-.1735-.163-.3217-.2857-.4444-.1227-.1227-.2708-.2158-.4443-.2793-.1735-.0677-.3682-.1015-.584-.1015h-3.7197v-1.6631h2.977c.2158 0 .4105-.0318.584-.0952.1735-.0678.3216-.163.4443-.2857.1228-.1227.2159-.2687.2793-.438.0677-.1735.1016-.3681.1016-.584v-.311c0-.237-.1143-.3555-.3428-.3555H54.51v5.8018h5.4463c.0296 0 .0656-.0021.1079-.0064.0423-.0042.0804-.0169.1143-.038.0338-.0212.0634-.0572.0888-.108.0254-.0507.0381-.1206.0381-.2094v-.3047Z"/><defs><linearGradient id="a" x1=".19116" x2="69.3824" y1="0" y2="69.1913" gradientUnits="userSpaceOnUse"><stop stop-color="#fff"/><stop offset=".76563" stop-color="#fff" stop-opacity="0"/></linearGradient><linearGradient id="b" x1="10.7075" x2="58.8646" y1="10.5164" y2="58.6735" gradientUnits="userSpaceOnUse"><stop stop-color="#fff"/><stop offset=".82813" stop-color="#fff" stop-opacity="0"/></linearGradient><clipPath id="c"><path fill="#fff" d="M21.7783 21.5873h26.0159v26.0159H21.7783z"/></clipPath></defs></svg>