<svg xmlns="http://www.w3.org/2000/svg" width="70" height="87" fill="none"><path stroke="url(#a)" stroke-opacity=".3" stroke-width="1.10747" d="M32.4005 1.59849c1.7132-.98915 3.824-.98915 5.5373 0L62.3612 15.6993c1.7132.9892 2.7686 2.8172 2.7686 4.7955v28.2017c0 1.9783-1.0554 3.8063-2.7686 4.7954L37.9378 67.5928c-1.7133.9891-3.8241.9891-5.5373 0L7.97709 53.4919c-1.71325-.9891-2.76867-2.8171-2.76867-4.7954V20.4948c0-1.9783 1.05541-3.8063 2.76866-4.7955L32.4005 1.59849Z"/><path fill="url(#b)" fill-opacity=".2" d="M33.2421 11.6289c1.1925-.6884 2.6616-.6884 3.854 0l16.9987 9.8142c1.1924.6884 1.927 1.9607 1.927 3.3376v19.6284c0 1.3769-.7346 2.6492-1.927 3.3376l-16.9987 9.8142c-1.1924.6885-2.6615.6885-3.854 0l-16.9986-9.8142c-1.1924-.6884-1.927-1.9607-1.927-3.3376V24.7807c0-1.3769.7346-2.6492 1.927-3.3376l16.9986-9.8142Z"/><g clip-path="url(#c)"><path fill="#E44D26" d="m23.6997 21.5872 2.0878 23.4143 9.369 2.6016 9.3933-2.6049 2.0911-23.411H23.6997Zm18.3965 7.6584H31.1077l.2618 2.9414h10.4666l-.7887 8.8162-5.8909 1.6325-5.8829-1.6325-.4016-4.5105h2.8829l.2049 2.2926 3.1983.8618.0065-.0016 3.2-.8634.3317-3.7236h-9.9528l-.7739-8.6844h14.3851l-.2569 2.8715h-.0016Z"/></g><path fill="#A1A1A1" d="M16.2908 76.8085h5.7954v-3.7198h1.6504v9.1026h-1.6504v-3.7197h-5.7954v3.7197h-1.6504v-9.1026h1.6504v3.7198Zm17.6084-2.0694H30.262v7.4522h-1.6504v-7.4522H24.968v-1.6504h8.9312v1.6504Zm11.813 7.4522h-1.6631v-5.4209l-2.9263 5.1479c-.0719.1312-.1735.2307-.3047.2984-.1269.0677-.2645.1015-.4126.1015-.1439 0-.2793-.0338-.4062-.1015-.1228-.0677-.2201-.1672-.292-.2984l-2.939-5.1479v5.4209h-1.6504v-8.398c0-.1904.055-.3597.1651-.5078.1142-.1481.2623-.2475.4443-.2983.0889-.0212.1777-.0275.2666-.0191.0889.0043.1735.0233.2539.0572.0846.0296.1608.074.2285.1333.0677.055.1249.1227.1714.2031l3.7578 6.5317 3.7578-6.5317c.0974-.1608.2307-.2751.3999-.3428.1735-.0677.3534-.0783.5396-.0317.1777.0508.3237.1502.438.2983.1142.1481.1714.3174.1714.5078v8.398Zm10.2832 0H48.467c-.1184 0-.2285-.0212-.33-.0635-.1016-.0423-.1905-.0994-.2666-.1714-.072-.0762-.1291-.165-.1714-.2666-.0423-.1015-.0635-.2116-.0635-.3301v-8.271h1.6504v7.4522h6.7095v1.6504Z"/><defs><linearGradient id="a" x1=".57349" x2="69.7648" y1="0" y2="69.1913" gradientUnits="userSpaceOnUse"><stop stop-color="#fff"/><stop offset=".76563" stop-color="#fff" stop-opacity="0"/></linearGradient><linearGradient id="b" x1="11.0906" x2="59.2477" y1="10.5164" y2="58.6735" gradientUnits="userSpaceOnUse"><stop stop-color="#fff"/><stop offset=".82813" stop-color="#fff" stop-opacity="0"/></linearGradient><clipPath id="c"><path fill="#fff" d="M22.1614 21.5873h26.0159v26.0159H22.1614z"/></clipPath></defs></svg>