<svg xmlns="http://www.w3.org/2000/svg" width="97" height="87" fill="none"><path stroke="url(#a)" stroke-opacity=".3" stroke-width="1.10747" d="M45.4224 1.59849c1.7133-.98915 3.8241-.98915 5.5374 0L75.3831 15.6993c1.7133.9892 2.7687 2.8172 2.7687 4.7955v28.2017c0 1.9783-1.0554 3.8063-2.7687 4.7954L50.9598 67.5928c-1.7133.9891-3.8241.9891-5.5374 0L20.9991 53.4919c-1.7133-.9891-2.7687-2.8171-2.7687-4.7954V20.4948c0-1.9783 1.0554-3.8063 2.7687-4.7955L45.4224 1.59849Z"/><path fill="url(#b)" fill-opacity=".2" d="M46.2641 11.6289c1.1924-.6884 2.6616-.6884 3.854 0l16.9987 9.8142c1.1924.6884 1.927 1.9607 1.927 3.3376v19.6284c0 1.3769-.7346 2.6492-1.927 3.3376l-16.9987 9.8142c-1.1924.6885-2.6616.6885-3.854 0l-16.9986-9.8142c-1.1925-.6884-1.927-1.9607-1.927-3.3376V24.7807c0-1.3769.7345-2.6492 1.927-3.3376l16.9986-9.8142Z"/><path fill="#FEE736" d="M49.5221 38.8326v-2.1187h3.1781v1.0594h4.2375v-2.1188h-5.2968c-1.1653 0-2.1188-.9534-2.1188-2.1187v-3.1781c0-1.1653.9535-2.1187 2.1188-2.1187h6.3561c1.1653 0 2.1187.9534 2.1187 2.1187v2.1188h-3.178v-1.0594h-4.2375v2.1187h5.2968c1.1653 0 2.1187.9534 2.1187 2.1187v3.1781c0 1.1653-.9534 2.1187-2.1187 2.1187h-6.3561c-1.1653 0-2.1188-.9534-2.1188-2.1187ZM43.166 28.239v9.5343h-3.1781v-2.1188h-3.1781v2.1188c0 1.7585 1.4196 3.178 3.1781 3.178h3.1781c1.7585 0 3.1781-1.4195 3.1781-3.178V28.239H43.166Z"/><path fill="#A1A1A1" d="M8.80493 79.8744c0 .3301-.05713.6369-.17139.9204-.11425.2835-.27506.529-.48242.7363-.20312.2074-.44645.3703-.72998.4888-.28353.1143-.59245.1714-.92676.1714H.44507v-1.6504h6.04931c.20313 0 .36182-.0571.47608-.1714.11426-.1185.17139-.2835.17139-.4951v-6.7857h1.66308v6.7857Zm10.82277 2.3169h-1.6504v-2.2344h-5.8018v2.2344h-1.6504V77.64c0-.6644.1143-1.2759.3428-1.8345.2285-.5586.5459-1.0389.9522-1.4409.4062-.402.8865-.7151 1.4409-.9394.5543-.2243 1.1595-.3365 1.8154-.3365h3.7197c.1143 0 .2222.0212.3238.0635.1015.0423.1904.1016.2666.1778.0761.0761.1354.165.1777.2666.0423.1015.0635.2094.0635.3237v8.271Zm-7.4522-3.8848h5.8018v-3.5674h-2.9009c-.0508 0-.1587.0085-.3237.0254-.1608.0127-.3491.0487-.565.1079-.2115.0593-.4358.1503-.6728.273-.237.1227-.4549.292-.6538.5078-.1989.2158-.3639.4867-.4951.8125-.127.3216-.1905.7131-.1905 1.1743v.6665Zm18.4844-5.2178-4.31 8.7789c-.0678.1354-.1693.2433-.3047.3237-.1312.0846-.2772.1269-.438.1269-.1566 0-.3026-.0423-.438-.1269-.1312-.0804-.2328-.1883-.3047-.3237l-4.3037-8.7789h1.8472l3.1992 6.5572 3.2119-6.5572h1.8408Zm9.6231 9.1026h-1.6504v-2.2344h-5.8018v2.2344h-1.6504V77.64c0-.6644.1143-1.2759.3428-1.8345.2285-.5586.5459-1.0389.9521-1.4409.4063-.402.8866-.7151 1.441-.9394.5543-.2243 1.1595-.3365 1.8154-.3365h3.7197c.1143 0 .2222.0212.3237.0635.1016.0423.1905.1016.2666.1778.0762.0761.1355.165.1778.2666.0423.1015.0635.2094.0635.3237v8.271Zm-7.4522-3.8848h5.8018v-3.5674h-2.9009c-.0508 0-.1587.0085-.3237.0254-.1608.0127-.3492.0487-.565.1079-.2116.0593-.4359.1503-.6728.273-.237.1227-.4549.292-.6538.5078-.1989.2158-.364.4867-.4952.8125-.1269.3216-.1904.7131-.1904 1.1743v.6665Zm18.1226 1.2061c0 .3258-.0423.6199-.127.8823-.0804.2581-.1883.4867-.3237.6855-.1354.1989-.2941.3682-.4761.5079-.182.1396-.3703.2539-.5649.3427-.1947.0889-.3936.1545-.5967.1968-.1989.0423-.3872.0635-.565.0635h-6.3667v-1.6504H48.3c.3174 0 .5629-.0931.7364-.2793.1777-.1862.2666-.4359.2666-.749 0-.1524-.0233-.292-.0698-.419-.0466-.1269-.1143-.237-.2032-.3301-.0846-.093-.1904-.165-.3174-.2158-.1227-.0508-.2602-.0761-.4126-.0761h-3.7958c-.2667 0-.5544-.0466-.8633-.1397-.309-.0973-.5967-.2518-.8633-.4634-.2624-.2116-.4824-.4887-.6602-.8315-.1735-.3428-.2602-.7617-.2602-1.2568 0-.4952.0867-.912.2602-1.2505.1778-.3428.3978-.62.6602-.8316.2666-.2158.5543-.3703.8633-.4634.3089-.0973.5966-.146.8633-.146h5.6176v1.6504h-5.6176c-.3132 0-.5586.0953-.7364.2857-.1735.1904-.2602.4422-.2602.7554 0 .3173.0867.5691.2602.7553.1778.182.4232.273.7364.273h3.8085c.1778.0042.3661.0296.565.0761.1989.0424.3957.1101.5903.2032.1989.0931.3872.2116.565.3554.1777.1397.3343.309.4697.5078.1396.1989.2497.4275.3301.6856s.1206.5501.1206.876Zm9.5215 2.6787h-5.9541c-.1524 0-.3174-.0169-.4952-.0508-.1735-.0381-.347-.0952-.5205-.1714-.1692-.0762-.3322-.1735-.4887-.292-.1566-.1227-.2963-.2687-.419-.438-.1185-.1735-.2137-.3724-.2856-.5966-.072-.2286-.1079-.4846-.1079-.7681v-4.4688c0-.1523.0169-.3152.0507-.4887.0381-.1778.0953-.3513.1714-.5205.0762-.1735.1756-.3386.2984-.4952.1227-.1565.2687-.2941.438-.4126.1735-.1227.3723-.22.5966-.2919.2243-.072.4782-.108.7618-.108h5.9541v1.6504h-5.9541c-.2159 0-.3809.0572-.4952.1714-.1142.1143-.1714.2836-.1714.5078v4.4561c0 .2116.0572.3766.1714.4951.1185.1143.2836.1714.4952.1714h5.9541v1.6504Zm10.6577-6.043c0 .3766-.0466.7131-.1397 1.0093-.0931.2962-.22.5586-.3808.7871-.1566.2243-.3386.4168-.5459.5776-.2074.1608-.4253.2941-.6538.3999-.2243.1016-.4528.1757-.6856.2222-.2285.0466-.4443.0698-.6475.0698l3.4468 2.9771h-2.5517l-3.4405-2.9771h-1.187v-1.6504h3.7324c.2074-.0169.3957-.0592.565-.1269.1735-.072.3216-.1672.4443-.2857.127-.1184.2243-.2602.292-.4252.0677-.1693.1016-.3619.1016-.5777v-1.041c0-.0931-.0127-.1629-.0381-.2095-.0212-.0508-.0508-.0867-.0889-.1079-.0338-.0254-.0719-.0402-.1142-.0444-.0381-.0042-.0741-.0064-.1079-.0064h-5.4463v7.4522h-1.6504v-8.271c0-.1143.0211-.2222.0635-.3237.0423-.1016.0994-.1905.1713-.2666.0762-.0762.1651-.1355.2666-.1778.1016-.0423.2116-.0635.3301-.0635h6.2652c.3681 0 .6792.0678.9331.2032.2539.1312.4591.2983.6157.5014.1608.1989.275.4147.3428.6475.0719.2327.1079.4507.1079.6538v1.0537Zm3.3198 6.043H72.802v-9.1026h1.6504v9.1026Zm11.0005-5.294c0 .3767-.0466.7131-.1397 1.0093-.0931.2962-.22.5586-.3808.7871-.1566.2243-.3386.4169-.5459.5777-.2074.1608-.4253.292-.6538.3935-.2243.1016-.4528.1756-.6856.2222-.2285.0465-.4443.0698-.6474.0698h-3.7325v-1.6504h3.7325c.2115-.0169.402-.0592.5712-.1269.1735-.072.3217-.1672.4444-.2857.1227-.1185.2179-.2602.2856-.4253.0677-.1692.1016-.3597.1016-.5713v-.749c-.0212-.2073-.0656-.3978-.1333-.5713-.0677-.1735-.1608-.3216-.2793-.4443-.1143-.1227-.2539-.2179-.419-.2857-.165-.0719-.3554-.1079-.5712-.1079h-3.7198c-.22 0-.3872.0572-.5014.1714-.1143.1143-.1714.2793-.1714.4951v6.7857h-1.6504v-6.7857c0-.4231.0762-.7828.2285-1.0791.1566-.2962.3491-.5353.5776-.7172.2328-.182.4846-.3132.7554-.3936.2708-.0846.5205-.127.749-.127h3.7325c.3724 0 .7067.0487 1.0029.146.2962.0931.5565.2201.7807.3809.2286.1566.4211.3385.5777.5459.1608.2074.292.4253.3935.6538.1058.2243.182.4528.2286.6856.0465.2285.0698.4443.0698.6474v.749Zm9.6421-2.1582h-3.6372v7.4522h-1.6504v-7.4522h-3.6436v-1.6504h8.9312v1.6504Z"/><defs><linearGradient id="a" x1="13.5955" x2="82.7867" y1="0" y2="69.1913" gradientUnits="userSpaceOnUse"><stop stop-color="#fff"/><stop offset=".76563" stop-color="#fff" stop-opacity="0"/></linearGradient><linearGradient id="b" x1="24.1125" x2="72.2697" y1="10.5164" y2="58.6735" gradientUnits="userSpaceOnUse"><stop stop-color="#fff"/><stop offset=".82813" stop-color="#fff" stop-opacity="0"/></linearGradient></defs></svg>