<svg xmlns="http://www.w3.org/2000/svg" width="70" height="87" fill="none"><path stroke="url(#a)" stroke-opacity=".3" stroke-width="1.10747" d="M31.827 1.59849c1.7132-.98915 3.824-.98915 5.5373 0L61.7877 15.6993c1.7132.9892 2.7686 2.8172 2.7686 4.7955v28.2017c0 1.9783-1.0554 3.8063-2.7686 4.7954L37.3643 67.5928c-1.7133.9891-3.8241.9891-5.5373 0L7.4036 53.4919c-1.71325-.9891-2.76866-2.8171-2.76866-4.7954V20.4948c0-1.9783 1.0554-3.8063 2.76866-4.7955L31.827 1.59849Z"/><path fill="url(#b)" fill-opacity=".2" d="M32.6689 11.6294c1.1924-.6885 2.6616-.6885 3.854 0l16.9987 9.8142c1.1924.6884 1.9269 1.9607 1.9269 3.3376v19.6284c0 1.3769-.7345 2.6492-1.9269 3.3376l-16.9987 9.8142c-1.1924.6885-2.6616.6885-3.854 0l-16.9987-9.8142c-1.1924-.6884-1.927-1.9607-1.927-3.3376V24.7812c0-1.3769.7346-2.6492 1.927-3.3376l16.9987-9.8142Z"/><g fill="#4ABDC8" clip-path="url(#c)"><path d="M47.6026 34.2585c0-1.7236-2.1582-3.3572-5.4677-4.3696.7642-3.3723.4249-6.0563-1.071-6.9159a2.32463 2.32463 0 0 0-1.188-.2959v1.1815c.2439 0 .4401.0488.6048.1388.7209.414 1.0342 1.988.7903 4.014-.0586.4986-.154 1.0233-.271 1.5588a25.69444 25.69444 0 0 0-3.3669-.5778 25.85962 25.85962 0 0 0-2.206-2.6514c1.729-1.6065 3.3518-2.4867 4.4553-2.4867v-1.1827c-1.4591 0-3.368 1.0396-5.2986 2.8423-1.9295-1.7908-3.8395-2.8206-5.2975-2.8206v1.1816c1.0981 0 2.7263.8758 4.4552 2.4715-.7425.7805-1.4851 1.665-2.1907 2.646-1.1362.1164-2.263.3113-3.3723.5832a15.93016 15.93016 0 0 1-.2765-1.5371c-.2493-2.0271.0586-3.601.7751-4.0195.1583-.0954.3653-.1387.6092-.1387v-1.1816c-.4444 0-.8488.0954-1.1978.296-1.4905.8596-1.8244 3.537-1.0558 6.8996-3.2986 1.019-5.446 2.646-5.446 4.3642 0 1.7235 2.1582 3.3571 5.4676 4.3685-.7642 3.3734-.4249 6.0574 1.071 6.9159.3447.2016.748.297 1.1924.297 1.4591 0 3.368-1.0396 5.2986-2.8422 1.9295 1.7918 3.8384 2.8205 5.2975 2.8205a2.362 2.362 0 0 0 1.1978-.297c1.4905-.8585 1.8244-3.536 1.0558-6.8986 3.2878-1.0124 5.4352-2.646 5.4352-4.3641Zm-6.9051-3.5371a23.85905 23.85905 0 0 1-.7154 2.0943 28.65146 28.65146 0 0 0-1.458-2.5138c.7534.1116 1.4797.2493 2.1745.4195h-.0011Zm-2.4281 5.6476c-.413.7155-.838 1.3951-1.2781 2.026-1.591.1402-3.1912.142-4.7825.0054a27.58717 27.58717 0 0 1-2.3859-4.1257 28.24725 28.24725 0 0 1 2.3761-4.1408 27.58413 27.58413 0 0 1 4.7815-.0065c.4401.6308.8705 1.3051 1.2835 2.0162.4032.6938.7696 1.3983 1.1035 2.1095a29.71215 29.71215 0 0 1-1.0981 2.1159Zm1.7127-.6894c.2862.71.5312 1.4211.7317 2.1105-.6938.1702-1.4265.3133-2.1843.4239.526-.8202 1.0108-1.666 1.4526-2.5344Zm-5.3766 5.6585c-.4932-.5095-.9865-1.0765-1.4743-1.6976.477.0217.9648.038 1.458.038.4986 0 .9919-.0109 1.4742-.038-.4769.6211-.9701 1.1881-1.4579 1.6976Zm-3.9458-3.1241a24.00288 24.00288 0 0 1-2.1745-.4184c.1962-.6841.4401-1.3897.7155-2.0943.2178.4227.4466.8477.6959 1.2726.2493.4238.503.8379.7631 1.2401Zm3.9187-11.0351c.4932.5095.9864 1.0764 1.4742 1.6975-.477-.0217-.9648-.0379-1.458-.0379-.4986 0-.9918.0108-1.4742.0379.477-.6211.9702-1.188 1.458-1.6975Zm-3.9241 3.1241a29.27757 29.27757 0 0 0-1.4526 2.5289 22.75078 22.75078 0 0 1-.7317-2.1105c.6938-.1648 1.4266-.3079 2.1843-.4184Zm-4.7989 6.6384c-1.8774-.8-3.0915-1.8504-3.0915-2.6829s1.2141-1.8884 3.0915-2.6829c.4553-.1962.954-.3718 1.4689-.5355.3024 1.0385.7002 2.1203 1.1924 3.2292a25.11006 25.11006 0 0 0-1.1762 3.213 16.14892 16.14892 0 0 1-1.4851-.5409Zm2.8531 7.5771c-.7208-.4119-1.0341-1.9881-.7902-4.013.0585-.4986.1539-1.0243.271-1.5598 1.0385.2547 2.1734.4509 3.3669.5788a25.8835 25.8835 0 0 0 2.2059 2.6515c-1.729 1.6065-3.3517 2.4867-4.4552 2.4867a1.26628 1.26628 0 0 1-.5984-.1431v-.0011Zm12.5787-4.0401c.2493 2.026-.0585 3.6011-.775 4.0195-.1583.0954-.3653.1377-.6092.1377-1.0981 0-2.7263-.8748-4.4553-2.4715.7426-.7784 1.4851-1.664 2.1908-2.645a24.75397 24.75397 0 0 0 3.3723-.5832c.1225.5355.2168 1.0493.2764 1.5425Zm2.0412-3.537c-.4553.1962-.9539.3718-1.4688.5355a25.46163 25.46163 0 0 0-1.1924-3.2293c.4878-1.1024.8791-2.1788 1.1761-3.2129.5258.1636 1.0233.3447 1.4905.5409 1.8775.8 3.0916 1.8504 3.0916 2.6829-.0055.8325-1.2195 1.8883-3.097 2.6829Z"/><path d="M34.5893 36.6828a2.4234 2.4234 0 0 0 1.7139-.7099c.4546-.4545.71-1.071.71-1.7139 0-.6428-.2554-1.2593-.71-1.7139a2.42383 2.42383 0 0 0-1.7139-.7099c-.6428 0-1.2593.2554-1.7139.7099a2.42417 2.42417 0 0 0-.7099 1.7139 2.42375 2.42375 0 0 0 2.4238 2.4238Z"/></g><path fill="#A1A1A1" d="M19.1504 76.1483c0 .3766-.0466.7131-.1397 1.0093-.0931.2962-.22.5586-.3808.7871-.1566.2243-.3386.4168-.5459.5776-.2074.1608-.4253.2941-.6538.3999-.2243.1016-.4528.1757-.6856.2222-.2285.0466-.4443.0698-.6474.0698l3.4467 2.9771h-2.5517l-3.4404-2.9771h-1.1871v-1.6504h3.7325c.2073-.0169.3956-.0592.5649-.1269.1735-.072.3216-.1672.4443-.2857.127-.1184.2243-.2602.292-.4252.0677-.1693.1016-.3619.1016-.5777v-1.041c0-.0931-.0127-.1629-.0381-.2095-.0211-.0508-.0508-.0867-.0889-.1079-.0338-.0254-.0719-.0402-.1142-.0444-.0381-.0042-.0741-.0064-.1079-.0064h-5.4463v7.4522h-1.6504v-8.271c0-.1143.0212-.2222.0635-.3237.0423-.1016.0994-.1905.1714-.2666.0761-.0762.165-.1355.2666-.1778.1015-.0423.2116-.0635.33-.0635h6.2652c.3681 0 .6792.0678.9331.2032.2539.1312.4591.2983.6157.5014.1608.1989.2751.4147.3428.6475.0719.2327.1079.4507.1079.6538v1.0537Zm9.1406 2.3233h-5.2114v-1.6631h5.2114v1.6631Zm.7427 3.7197h-5.9541c-.2285 0-.4782-.0402-.749-.1206-.2709-.0804-.5227-.2116-.7554-.3936-.2285-.1862-.4211-.4253-.5776-.7173-.1524-.2962-.2286-.658-.2286-1.0854v-5.9541c0-.1143.0212-.2222.0635-.3237.0423-.1016.0995-.1905.1714-.2666.0762-.0762.165-.1355.2666-.1778.1016-.0423.2116-.0635.3301-.0635h7.4331v1.6504h-6.6143v5.1353c0 .2158.0572.3808.1714.4951.1143.1143.2814.1714.5015.1714h5.9414v1.6504Zm10.5308 0h-1.6504v-2.2344h-5.8018v2.2344h-1.6504V77.64c0-.6644.1143-1.2759.3428-1.8345.2285-.5586.5459-1.0389.9521-1.4409.4063-.402.8866-.7151 1.441-.9394.5543-.2243 1.1595-.3365 1.8154-.3365h3.7197c.1143 0 .2222.0212.3237.0635.1016.0423.1905.1016.2666.1778.0762.0761.1355.165.1778.2666.0423.1015.0635.2094.0635.3237v8.271Zm-7.4522-3.8848h5.8018v-3.5674h-2.9009c-.0508 0-.1587.0085-.3237.0254-.1609.0127-.3492.0487-.565.1079-.2116.0593-.4359.1503-.6728.273-.237.1227-.455.292-.6538.5078-.1989.2158-.364.4867-.4952.8125-.1269.3216-.1904.7131-.1904 1.1743v.6665Zm17.5259 3.8848h-5.9541c-.1524 0-.3174-.0169-.4951-.0508-.1735-.0381-.347-.0952-.5205-.1714-.1693-.0762-.3322-.1735-.4888-.292-.1566-.1227-.2962-.2687-.419-.438-.1184-.1735-.2137-.3724-.2856-.5966-.0719-.2286-.1079-.4846-.1079-.7681v-4.4688c0-.1523.0169-.3152.0508-.4887.0381-.1778.0952-.3513.1714-.5205.0761-.1735.1756-.3386.2983-.4952.1227-.1565.2687-.2941.438-.4126.1735-.1227.3724-.22.5967-.2919.2242-.072.4782-.108.7617-.108h5.9541v1.6504h-5.9541c-.2158 0-.3809.0572-.4951.1714-.1143.1143-.1714.2836-.1714.5078v4.4561c0 .2116.0571.3766.1714.4951.1185.1143.2835.1714.4951.1714h5.9541v1.6504Zm9.7881-7.4522h-3.6372v7.4522h-1.6504v-7.4522h-3.6436v-1.6504h8.9312v1.6504Z"/><defs><linearGradient id="a" x1="0" x2="69.1913" y1="0" y2="69.1913" gradientUnits="userSpaceOnUse"><stop stop-color="#fff"/><stop offset=".76563" stop-color="#fff" stop-opacity="0"/></linearGradient><linearGradient id="b" x1="10.5173" x2="58.6745" y1="10.5168" y2="58.674" gradientUnits="userSpaceOnUse"><stop stop-color="#fff"/><stop offset=".82813" stop-color="#fff" stop-opacity="0"/></linearGradient><clipPath id="c"><path fill="#fff" d="M21.5876 21.5868h26.0159v26.0159H21.5876z"/></clipPath></defs></svg>