<svg xmlns="http://www.w3.org/2000/svg" width="70" height="87" fill="none"><path stroke="url(#a)" stroke-opacity=".3" stroke-width="1.10747" d="M32.0181 1.59849c1.7133-.98915 3.8241-.98915 5.5374 0L61.9788 15.6993c1.7133.9892 2.7687 2.8172 2.7687 4.7955v28.2017c0 1.9783-1.0554 3.8063-2.7687 4.7954L37.5555 67.5928c-1.7133.9891-3.8241.9891-5.5374 0L7.59477 53.4919c-1.71326-.9891-2.76867-2.8171-2.76867-4.7954V20.4948c0-1.9783 1.05541-3.8063 2.76866-4.7955L32.0181 1.59849Z"/><path fill="url(#b)" fill-opacity=".2" d="M32.8601 11.6289c1.1924-.6884 2.6615-.6884 3.8539 0l16.9987 9.8142c1.1924.6884 1.927 1.9607 1.927 3.3376v19.6284c0 1.3769-.7346 2.6492-1.927 3.3376L36.714 57.5609c-1.1924.6885-2.6615.6885-3.8539 0l-16.9987-9.8142c-1.1924-.6884-1.927-1.9607-1.927-3.3376V24.7807c0-1.3769.7346-2.6492 1.927-3.3376l16.9987-9.8142Z"/><g clip-path="url(#c)"><path fill="#CD6799" d="M47.1984 36.5616c-1.2068.0063-2.2557.2969-3.1339.7266-.3223-.6382-.6445-1.2068-.7013-1.6238-.0633-.4865-.139-.7835-.0633-1.3648.0759-.5813.4171-1.4091.4107-1.4722-.0062-.0631-.0759-.3602-.7708-.3664-.695-.0064-1.2953.1327-1.3648.3159-.0695.1832-.2022.6002-.2906 1.0298-.1201.6319-1.39 2.8874-2.1165 4.069-.2339-.4611-.4361-.8656-.4804-1.1878-.0631-.4864-.139-.7834-.0631-1.3647.0759-.5813.417-1.409.4107-1.4722-.0064-.0632-.0759-.3602-.7709-.3664-.6951-.0064-1.2954.1326-1.3647.3158-.0695.1834-.1454.6129-.2907 1.03-.1454.417-1.8323 4.1828-2.2746 5.1557a29.0995 29.0995 0 0 1-.5623 1.169s-.0064.0189-.0254.0505c-.0616.1209-.1247.2409-.1894.3602v.0062c-.0949.1707-.1959.3286-.2465.3286-.0379 0-.1074-.4549.0126-1.0741.2527-1.3079.853-3.3424.8468-3.4119 0-.0379.1136-.3917-.3918-.5751-.4929-.1832-.6697.1201-.7141.1201-.0441 0-.0758.1074-.0758.1074s.5498-2.2872-1.0488-2.2872c-.9982 0-2.3757 1.0931-3.0581 2.0787-.7757.4221-1.5508.8455-2.3252 1.27-.3726.2086-.7581.4171-1.1182.6129-.0254-.0252-.0506-.0569-.0759-.0821-1.9335-2.0661-5.5096-3.5257-5.3579-6.2994.0569-1.0109.4043-3.6647 6.868-6.887 5.32-2.6222 9.5534-1.8957 10.2863-.2844 1.0488 2.2999-2.2682 6.5712-7.7653 7.1903-2.0977.2338-3.1971-.575-3.475-.8782-.2907-.316-.335-.335-.4424-.2717-.1769.0949-.0632.3791 0 .5434.1643.4295.8403 1.1878 1.9839 1.5606 1.011.3285 3.4688.5118 6.4448-.6382 3.3298-1.289 5.933-4.8714 5.1685-7.8726-.7646-3.0455-5.8193-4.0501-10.6023-2.3505-2.8432 1.0111-5.9266 2.6032-8.1443 4.6757-2.6348 2.464-3.0519 4.606-2.8813 5.5033.613 3.1843 5.0043 5.2568 6.7608 6.7922-.0885.0505-.1708.0948-.2401.1327-.8784.4359-4.2271 2.1861-5.0611 4.0374-.9477 2.0977.1518 3.6016.8783 3.8036 2.2557.6256 4.5745-.499 5.8192-2.3567 1.2447-1.8576 1.0931-4.2713.5181-5.3769-.0063-.0126-.0126-.0254-.0253-.038.2275-.1326.4612-.2717.6887-.4043a33.5653 33.5653 0 0 1 1.2701-.7141c-.2149.5877-.3729 1.289-.4487 2.3-.0948 1.1879.3916 2.7295 1.0298 3.336.2844.2656.6193.2718.8342.2718.7455 0 1.0804-.6192 1.4532-1.3522.4549-.8971.8656-1.9396.8656-1.9396s-.5118 2.8179.8783 2.8179c.5054 0 1.0172-.6571 1.2447-.9919v.0062s.0126-.019.0379-.0632c.0506-.0821.0821-.1327.0821-.1327v-.0125c.2022-.3539.6572-1.1564 1.3332-2.4895.872-1.7186 1.7123-3.8668 1.7123-3.8668s.0759.5244.3348 1.3963c.1518.5118.4675 1.0741.7204 1.6175-.2022.2844-.3286.4423-.3286.4423l.0063.0063c-.1643.2148-.3411.4485-.5371.6762-.6887.8212-1.51 1.7628-1.6238 2.0344-.1328.3222-.1011.556.1518.7456.1831.139.5116.1579.8466.139.6192-.0443 1.0551-.1959 1.2699-.2906.3349-.1201.7266-.3034 1.093-.5751.6762-.4992 1.0867-1.2131 1.0489-2.1544-.0189-.5182-.1895-1.0363-.3981-1.5229.0633-.0883.1201-.1768.1834-.2653 1.0677-1.5607 1.8955-3.273 1.8955-3.273s.0759.5244.3348 1.3965c.1264.4422.3855.9224.6129 1.3899-1.0046.8152-1.6239 1.7629-1.845 2.3821-.398 1.15-.0885 1.668.4992 1.7881.2653.0569.6444-.0696.9225-.1896.3537-.1137.7708-.3095 1.1689-.6003.6762-.499 1.3268-1.1941 1.2889-2.1354-.019-.4297-.1327-.8532-.2907-1.2639.853-.3536 1.9524-.5495 3.355-.3853 3.0077.3538 3.6016 2.2303 3.4878 3.0203-.1137.7897-.7456 1.2193-.954 1.352-.2086.1328-.278.1769-.259.2717.0252.139.1263.1328.3032.1074.2465-.0442 1.5797-.6382 1.6364-2.0914.0949-1.8576-1.6743-3.8857-4.8019-3.8668Zm-23.2011 7.8221c-.9983 1.0868-2.3883 1.4975-2.9886 1.15-.6444-.3729-.3917-1.9777.834-3.1276.7456-.7013 1.706-1.3523 2.3442-1.7502.1452-.0885.3601-.2148.6192-.3728.0442-.0253.0695-.0379.0695-.0379l.1517-.0949c.4485 1.6428.0189 3.0898-1.03 4.2334Zm7.2662-4.9409c-.3476.8467-1.0741 3.0139-1.5164 2.8938-.3791-.1011-.613-1.7439-.0759-3.3677.2717-.8152.8466-1.7882 1.1816-2.1672.5433-.6066 1.1436-.8089 1.2889-.5623.1833.3222-.6634 2.6726-.8782 3.2034Zm5.9961 2.8685c-.1454.0759-.2843.1264-.3475.0885-.0442-.0254.0632-.1265.0632-.1265s.7519-.8086 1.0488-1.1751c.1707-.2148.3728-.4675.5877-.7519v.0821c0 .9668-.9352 1.6176-1.3523 1.8829h.0001Zm4.625-1.0552c-.1074-.0758-.0885-.3285.2717-1.1184.139-.3096.4675-.8276 1.0299-1.3268.0632.2022.1075.3981.1011.5813-.0064 1.2195-.8782 1.6744-1.4027 1.8639Z"/></g><path fill="#A1A1A1" d="M23.4924 79.5126c0 .3258-.0423.6199-.1269.8823-.0804.2581-.1883.4867-.3238.6855-.1354.1989-.2941.3682-.476.5079-.182.1396-.3703.2539-.565.3427-.1946.0889-.3935.1545-.5966.1968-.1989.0423-.3873.0635-.565.0635h-6.3667v-1.6504h6.3667c.3174 0 .5628-.0931.7363-.2793.1778-.1862.2666-.4359.2666-.749 0-.1524-.0232-.292-.0698-.419-.0465-.1269-.1142-.237-.2031-.3301-.0846-.093-.1904-.165-.3174-.2158-.1227-.0508-.2602-.0761-.4126-.0761h-3.7959c-.2666 0-.5543-.0466-.8633-.1397-.3089-.0973-.5966-.2518-.8632-.4634-.2624-.2116-.4825-.4887-.6602-.8315-.1735-.3428-.2603-.7617-.2603-1.2568 0-.4952.0868-.912.2603-1.2505.1777-.3428.3978-.62.6602-.8316.2666-.2158.5543-.3703.8632-.4634.309-.0973.5967-.146.8633-.146h5.6177v1.6504h-5.6177c-.3131 0-.5586.0953-.7363.2857-.1735.1904-.2603.4422-.2603.7554 0 .3173.0868.5691.2603.7553.1777.182.4232.273.7363.273h3.8086c.1777.0042.3661.0296.5649.0761.1989.0424.3957.1101.5904.2032.1989.0931.3872.2116.5649.3554.1778.1397.3343.309.4697.5078.1397.1989.2497.4275.3301.6856s.1206.5501.1206.876Zm10.3023 2.6787h-1.6504v-2.2344h-5.8018v2.2344h-1.6504V77.64c0-.6644.1143-1.2759.3428-1.8345.2285-.5586.5459-1.0389.9522-1.4409.4062-.402.8865-.7151 1.4409-.9394.5543-.2243 1.1595-.3365 1.8154-.3365h3.7197c.1143 0 .2222.0212.3238.0635.1015.0423.1904.1016.2666.1778.0761.0761.1354.165.1777.2666.0423.1015.0635.2094.0635.3237v8.271Zm-7.4522-3.8848h5.8018v-3.5674h-2.9009c-.0508 0-.1587.0085-.3237.0254-.1608.0127-.3491.0487-.565.1079-.2116.0593-.4358.1503-.6728.273-.237.1227-.4549.292-.6538.5078-.1989.2158-.364.4867-.4951.8125-.127.3216-.1905.7131-.1905 1.1743v.6665Zm18.1226 1.2061c0 .3258-.0423.6199-.127.8823-.0804.2581-.1883.4867-.3237.6855-.1354.1989-.2941.3682-.4761.5079-.1819.1396-.3702.2539-.5649.3427-.1947.0889-.3936.1545-.5967.1968-.1989.0423-.3872.0635-.5649.0635h-6.3667v-1.6504h6.3667c.3174 0 .5628-.0931.7363-.2793.1777-.1862.2666-.4359.2666-.749 0-.1524-.0233-.292-.0698-.419-.0466-.1269-.1143-.237-.2032-.3301-.0846-.093-.1904-.165-.3173-.2158-.1228-.0508-.2603-.0761-.4126-.0761h-3.7959c-.2666 0-.5544-.0466-.8633-.1397-.3089-.0973-.5967-.2518-.8633-.4634-.2624-.2116-.4824-.4887-.6601-.8315-.1736-.3428-.2603-.7617-.2603-1.2568 0-.4952.0867-.912.2603-1.2505.1777-.3428.3977-.62.6601-.8316.2666-.2158.5544-.3703.8633-.4634.3089-.0973.5967-.146.8633-.146h5.6176v1.6504h-5.6176c-.3132 0-.5586.0953-.7364.2857-.1735.1904-.2602.4422-.2602.7554 0 .3173.0867.5691.2602.7553.1778.182.4232.273.7364.273h3.8086c.1777.0042.366.0296.5649.0761.1989.0424.3957.1101.5903.2032.1989.0931.3872.2116.565.3554.1777.1397.3343.309.4697.5078.1397.1989.2497.4275.3301.6856s.1206.5501.1206.876Zm10.1182 0c0 .3258-.0424.6199-.127.8823-.0804.2581-.1883.4867-.3237.6855-.1354.1989-.2941.3682-.4761.5079-.182.1396-.3703.2539-.5649.3427-.1947.0889-.3936.1545-.5967.1968-.1989.0423-.3872.0635-.565.0635h-6.3667v-1.6504h6.3667c.3174 0 .5629-.0931.7364-.2793.1777-.1862.2666-.4359.2666-.749 0-.1524-.0233-.292-.0699-.419-.0465-.1269-.1142-.237-.2031-.3301-.0846-.093-.1904-.165-.3174-.2158-.1227-.0508-.2602-.0761-.4126-.0761H48.134c-.2666 0-.5543-.0466-.8632-.1397-.309-.0973-.5967-.2518-.8633-.4634-.2624-.2116-.4825-.4887-.6602-.8315-.1735-.3428-.2602-.7617-.2602-1.2568 0-.4952.0867-.912.2602-1.2505.1777-.3428.3978-.62.6602-.8316.2666-.2158.5543-.3703.8633-.4634.3089-.0973.5966-.146.8632-.146h5.6177v1.6504H48.134c-.3131 0-.5586.0953-.7363.2857-.1735.1904-.2602.4422-.2602.7554 0 .3173.0867.5691.2602.7553.1777.182.4232.273.7363.273h3.8086c.1778.0042.3661.0296.565.0761.1989.0424.3956.1101.5903.2032.1989.0931.3872.2116.5649.3554.1778.1397.3344.309.4698.5078.1396.1989.2496.4275.33.6856.0805.2581.1207.5501.1207.876Z"/><defs><linearGradient id="a" x1=".19116" x2="69.3824" y1="0" y2="69.1913" gradientUnits="userSpaceOnUse"><stop stop-color="#fff"/><stop offset=".76563" stop-color="#fff" stop-opacity="0"/></linearGradient><linearGradient id="b" x1="10.7085" x2="58.8656" y1="10.5164" y2="58.6735" gradientUnits="userSpaceOnUse"><stop stop-color="#fff"/><stop offset=".82813" stop-color="#fff" stop-opacity="0"/></linearGradient><clipPath id="c"><path fill="#fff" d="M17.3503 21.5873h34.6879v26.0159H17.3503z"/></clipPath></defs></svg>