<svg xmlns="http://www.w3.org/2000/svg" width="95" height="87" fill="none"><path stroke="url(#a)" stroke-opacity=".3" stroke-width="1.10747" d="M44.4224 1.59849c1.7133-.98915 3.8241-.98915 5.5374 0L74.3831 15.6993c1.7133.9892 2.7687 2.8172 2.7687 4.7955v28.2017c0 1.9783-1.0554 3.8063-2.7687 4.7954L49.9598 67.5928c-1.7133.9891-3.8241.9891-5.5374 0L19.9991 53.4919c-1.7133-.9891-2.7687-2.8171-2.7687-4.7954V20.4948c0-1.9783 1.0554-3.8063 2.7687-4.7955L44.4224 1.59849Z"/><path fill="url(#b)" fill-opacity=".2" d="M45.2644 11.6289c1.1924-.6884 2.6615-.6884 3.8539 0l16.9987 9.8142c1.1924.6884 1.927 1.9607 1.927 3.3376v19.6284c0 1.3769-.7346 2.6492-1.927 3.3376l-16.9987 9.8142c-1.1924.6885-2.6615.6885-3.8539 0l-16.9987-9.8142c-1.1924-.6884-1.927-1.9607-1.927-3.3376V24.7807c0-1.3769.7346-2.6492 1.927-3.3376l16.9987-9.8142Z"/><path fill="#007ACC" d="M58.5914 23.7134a5.64514 5.64514 0 0 1 2.8369 1.6347c.4205.4401.7857.93 1.0873 1.4587.014.0574-1.9576 1.382-3.1534 2.1209-.0434.0294-.2156-.1582-.4109-.4466a2.5701 2.5701 0 0 0-.9012-.9127 2.57095 2.57095 0 0 0-1.23-.3635c-1.3744-.0944-2.26.6253-2.2537 1.8287-.0118.2957.0556.5891.1953.85.3024.6253.8639 1.0005 2.6276 1.7649 3.2465 1.3974 4.6401 2.3188 5.5002 3.6281.4862.8273.7856 1.7509.8773 2.706a6.5813 6.5813 0 0 1-.3464 2.8236 6.08052 6.08052 0 0 1-2.0192 2.4802 6.08037 6.08037 0 0 1-2.9986 1.1122c-1.149.1318-2.3099.1198-3.4559-.0358a8.3342 8.3342 0 0 1-4.6145-2.4042 8.01272 8.01272 0 0 1-1.1818-1.7497c.1325-.0985.272-.1872.4173-.2654.2017-.1149.9648-.5538 1.6846-.9712l1.3067-.7656.2731.3981a6.08865 6.08865 0 0 0 1.7229 1.6488c.684.3752 1.4589.553 2.2381.5136a4.21144 4.21144 0 0 0 2.1748-.7369 1.9713 1.9713 0 0 0 .5854-1.2132 1.97104 1.97104 0 0 0-.3302-1.3059c-.3522-.5041-1.0719-.9278-3.1176-1.8147a11.23073 11.23073 0 0 1-4.2739-2.6225 5.9823 5.9823 0 0 1-1.2455-2.2678 9.08054 9.08054 0 0 1-.0791-2.8943 5.52822 5.52822 0 0 1 1.6469-2.8854 5.52793 5.52793 0 0 1 3.0034-1.4203 11.48092 11.48092 0 0 1 3.4341.1072Zm-10.6469 1.8925.014 1.8555h-5.9086v16.7789h-4.1666v-16.775h-5.9087v-1.8224c-.0157-.6241.0014-1.2486.0511-1.8708.0217-.0294 3.6141-.0434 7.9696-.0358l7.9262.0217.023 1.8479Z"/><path fill="#A1A1A1" d="M9.37622 74.7391H5.73901v7.4522H4.08862v-7.4522H.44507v-1.6504h8.93115v1.6504Zm9.88968 1.3965c0 .3766-.0487.7131-.146 1.0093-.0931.2962-.218.5586-.3745.7871-.1566.2243-.3407.4168-.5523.5776-.2073.1609-.4232.2942-.6474.3999-.2243.1016-.4528.1757-.6856.2222-.2285.0466-.4443.0698-.6475.0698h-.6665v2.9898h-1.663v-2.9898h-.6602c-.2031 0-.4211-.0232-.6538-.0698-.2285-.0465-.457-.1206-.6856-.2222-.2242-.1057-.4401-.239-.6474-.3999-.2074-.1608-.3915-.3533-.5523-.5776-.1565-.2285-.2835-.4909-.3808-.7871-.0931-.3005-.1397-.6369-.1397-1.0093v-3.0469h1.6504v3.0469c0 .2158.0339.4105.1016.584.0677.1693.1629.3153.2856.438.1227.1227.2709.2179.4444.2856.1777.0635.3745.0953.5903.0953h2.977c.1566-.0254.3174-.0572.4825-.0953.165-.0423.3152-.1121.4507-.2094.1354-.0974.2475-.2328.3364-.4063.0888-.1735.1333-.4041.1333-.6919v-3.0469h1.6504v3.0469Zm10.5561.7617c0 .3767-.0465.7131-.1396 1.0093-.0931.2962-.2201.5586-.3809.7871-.1566.2243-.3385.4169-.5459.5777-.2073.1608-.4253.292-.6538.3935-.2243.1016-.4528.1756-.6855.2222-.2286.0465-.4444.0698-.6475.0698h-3.7324v-1.6504h3.7324c.2116-.0169.402-.0592.5713-.1269.1735-.072.3216-.1672.4443-.2857.1227-.1185.218-.2602.2857-.4253.0677-.1692.1015-.3597.1015-.5713v-.749c-.0211-.2073-.0656-.3978-.1333-.5713-.0677-.1735-.1608-.3216-.2793-.4443-.1142-.1227-.2539-.2179-.4189-.2857-.1651-.0719-.3555-.1079-.5713-.1079h-3.7197c-.2201 0-.3872.0572-.5015.1714-.1143.1143-.1714.2793-.1714.4951v6.7857h-1.6504v-6.7857c0-.4231.0762-.7828.2285-1.0791.1566-.2962.3492-.5353.5777-.7172.2327-.182.4845-.3132.7554-.3936.2708-.0846.5205-.127.749-.127h3.7324c.3724 0 .7067.0487 1.0029.146.2963.0931.5565.2201.7808.3809.2285.1566.4211.3385.5776.5459.1608.2074.292.4253.3936.6538.1058.2243.1819.4528.2285.6856.0465.2285.0698.4443.0698.6474v.749Zm8.8994 1.5743H33.51v-1.6631h5.2114v1.6631Zm.7427 3.7197H33.51c-.2285 0-.4782-.0402-.749-.1206s-.5226-.2116-.7554-.3936c-.2285-.1862-.421-.4253-.5776-.7173-.1524-.2962-.2285-.658-.2285-1.0854v-5.9541c0-.1143.0211-.2222.0634-.3237.0424-.1016.0995-.1905.1714-.2666.0762-.0762.1651-.1355.2666-.1778.1016-.0423.2116-.0635.3301-.0635h7.4331v1.6504h-6.6142v5.1353c0 .2158.0571.3808.1713.4951.1143.1143.2815.1714.5015.1714h5.9414v1.6504Zm10.3086-2.6787c0 .3258-.0423.6199-.1269.8823-.0805.2581-.1884.4867-.3238.6855-.1354.1989-.2941.3682-.4761.5079-.1819.1396-.3702.2539-.5649.3427-.1947.0889-.3935.1545-.5967.1968-.1989.0423-.3872.0635-.5649.0635h-6.3667v-1.6504h6.3667c.3174 0 .5628-.0931.7363-.2793.1777-.1862.2666-.4359.2666-.749 0-.1524-.0233-.292-.0698-.419-.0466-.1269-.1143-.237-.2031-.3301-.0847-.093-.1905-.165-.3174-.2158-.1227-.0508-.2603-.0761-.4126-.0761h-3.7959c-.2666 0-.5544-.0466-.8633-.1397-.3089-.0973-.5967-.2518-.8633-.4634-.2623-.2116-.4824-.4887-.6601-.8315-.1735-.3428-.2603-.7617-.2603-1.2568 0-.4952.0868-.912.2603-1.2505.1777-.3428.3978-.62.6601-.8316.2666-.2158.5544-.3703.8633-.4634.3089-.0973.5967-.146.8633-.146h5.6177v1.6504h-5.6177c-.3132 0-.5586.0953-.7363.2857-.1735.1904-.2603.4422-.2603.7554 0 .3173.0868.5691.2603.7553.1777.182.4231.273.7363.273h3.8086c.1777.0042.366.0296.5649.0761.1989.0424.3957.1101.5904.2032.1988.0931.3872.2116.5649.3554.1777.1397.3343.309.4697.5078.1397.1989.2497.4275.3301.6856s.1206.5501.1206.876Zm9.5215 2.6787h-5.9541c-.1524 0-.3174-.0169-.4951-.0508-.1735-.0381-.347-.0952-.5205-.1714-.1693-.0762-.3322-.1735-.4888-.292-.1566-.1227-.2962-.2687-.419-.438-.1184-.1735-.2137-.3724-.2856-.5966-.0719-.2286-.1079-.4846-.1079-.7681v-4.4688c0-.1523.0169-.3152.0508-.4887.0381-.1778.0952-.3513.1714-.5205.0761-.1735.1756-.3386.2983-.4952.1227-.1565.2687-.2941.438-.4126.1735-.1227.3724-.22.5967-.2919.2243-.072.4782-.108.7617-.108h5.9541v1.6504h-5.9541c-.2158 0-.3809.0572-.4951.1714-.1143.1143-.1714.2836-.1714.5078v4.4561c0 .2116.0571.3766.1714.4951.1185.1143.2835.1714.4951.1714h5.9541v1.6504Zm10.6577-6.043c0 .3766-.0465.7131-.1396 1.0093-.0931.2962-.2201.5586-.3809.7871-.1566.2243-.3385.4168-.5459.5776-.2074.1608-.4253.2941-.6538.3999-.2243.1016-.4528.1757-.6856.2222-.2285.0466-.4443.0698-.6474.0698l3.4468 2.9771h-2.5518l-3.4404-2.9771h-1.187v-1.6504h3.7324c.2073-.0169.3957-.0592.5649-.1269.1735-.072.3216-.1672.4444-.2857.1269-.1184.2242-.2602.292-.4252.0677-.1693.1015-.3619.1015-.5777v-1.041c0-.0931-.0127-.1629-.0381-.2095-.0211-.0508-.0508-.0867-.0888-.1079-.0339-.0254-.072-.0402-.1143-.0444-.0381-.0042-.0741-.0064-.1079-.0064h-5.4463v7.4522h-1.6504v-8.271c0-.1143.0212-.2222.0635-.3237.0423-.1016.0994-.1905.1714-.2666.0761-.0762.165-.1355.2666-.1778.1015-.0423.2116-.0635.3301-.0635h6.2651c.3682 0 .6792.0678.9331.2032.2539.1312.4591.2983.6157.5014.1608.1989.2751.4147.3428.6475.0719.2327.1079.4507.1079.6538v1.0537Zm3.3198 6.043h-1.6504v-9.1026h1.6504v9.1026Zm11.0005-5.294c0 .3767-.0465.7131-.1396 1.0093-.0931.2962-.2201.5586-.3809.7871-.1566.2243-.3385.4169-.5459.5777-.2073.1608-.4253.292-.6538.3935-.2243.1016-.4528.1756-.6855.2222-.2286.0465-.4444.0698-.6475.0698h-3.7324v-1.6504h3.7324c.2116-.0169.402-.0592.5713-.1269.1735-.072.3216-.1672.4443-.2857.1227-.1185.218-.2602.2857-.4253.0677-.1692.1015-.3597.1015-.5713v-.749c-.0211-.2073-.0656-.3978-.1333-.5713-.0677-.1735-.1608-.3216-.2793-.4443-.1142-.1227-.2539-.2179-.4189-.2857-.1651-.0719-.3555-.1079-.5713-.1079h-3.7197c-.2201 0-.3872.0572-.5015.1714-.1143.1143-.1714.2793-.1714.4951v6.7857H75.176v-6.7857c0-.4231.0762-.7828.2285-1.0791.1566-.2962.3492-.5353.5777-.7172.2327-.182.4845-.3132.7553-.3936.2709-.0846.5206-.127.7491-.127h3.7324c.3724 0 .7067.0487 1.0029.146.2962.0931.5565.2201.7808.3809.2285.1566.421.3385.5776.5459.1608.2074.292.4253.3936.6538.1058.2243.1819.4528.2285.6856.0465.2285.0698.4443.0698.6474v.749Zm9.6421-2.1582h-3.6372v7.4522h-1.6504v-7.4522h-3.6435v-1.6504h8.9311v1.6504Z"/><defs><linearGradient id="a" x1="12.5955" x2="81.7867" y1="0" y2="69.1913" gradientUnits="userSpaceOnUse"><stop stop-color="#fff"/><stop offset=".76563" stop-color="#fff" stop-opacity="0"/></linearGradient><linearGradient id="b" x1="23.1128" x2="71.2699" y1="10.5164" y2="58.6735" gradientUnits="userSpaceOnUse"><stop stop-color="#fff"/><stop offset=".82813" stop-color="#fff" stop-opacity="0"/></linearGradient></defs></svg>