<svg xmlns="http://www.w3.org/2000/svg" width="70" height="87" fill="none"><path stroke="url(#a)" stroke-opacity=".3" stroke-width="1.10747" d="M32.2093 1.59849c1.7132-.98915 3.8241-.98915 5.5373 0L62.17 15.6993c1.7132.9892 2.7687 2.8172 2.7687 4.7955v28.2017c0 1.9783-1.0554 3.8063-2.7687 4.7954L37.7466 67.5928c-1.7132.9891-3.824.9891-5.5373 0L7.78593 53.4919c-1.71326-.9891-2.76867-2.8171-2.76867-4.7954V20.4948c0-1.9783 1.05541-3.8063 2.76866-4.7955L32.2093 1.59849Z"/><path fill="url(#b)" fill-opacity=".2" d="M33.0512 11.6289c1.1925-.6884 2.6616-.6884 3.854 0l16.9987 9.8142c1.1924.6884 1.927 1.9607 1.927 3.3376v19.6284c0 1.3769-.7346 2.6492-1.927 3.3376l-16.9987 9.8142c-1.1924.6885-2.6615.6885-3.854 0l-16.9986-9.8142c-1.1925-.6884-1.927-1.9607-1.927-3.3376V24.7807c0-1.3769.7345-2.6492 1.927-3.3376l16.9986-9.8142Z"/><g clip-path="url(#c)"><path fill="#016EC5" d="M41.4816 43.9315V21.5874l6.504 2.7056v20.6046l-6.5039 2.7057-19.512-6.5697 19.5119 2.8979Zm-16.4032-7.1132-1.4827-.4953 3.6603-3.6182-3.6602-3.6182 1.4826-.4951 3.598 2.7093 5.9757-5.9069 3.5775 1.5208v11.5798l-3.5777 1.5208-5.9757-5.9066-3.5978 2.7095v.0001Zm5.4625-4.1136 4.1112 3.0959v-6.1918l-4.1112 3.0959Z"/></g><path fill="#A1A1A1" d="m14.0454 73.0887-4.31005 8.7789c-.06771.1354-.16927.2433-.30469.3237-.13118.0846-.27718.1269-.43798.1269-.15658 0-.30258-.0423-.43799-.1269-.13119-.0804-.23275-.1883-.30469-.3237l-4.30371-8.7789h1.84717l3.19922 6.5572 3.21192-6.5572h1.8408Zm9.5913 6.4239c0 .3258-.0423.6199-.1269.8823-.0804.2581-.1883.4867-.3238.6855-.1354.1989-.2941.3682-.476.5079-.182.1396-.3703.2539-.565.3427-.1946.0889-.3935.1545-.5967.1968-.1989.0423-.3872.0635-.5649.0635h-6.3667v-1.6504h6.3667c.3174 0 .5628-.0931.7363-.2793.1778-.1862.2666-.4359.2666-.749 0-.1524-.0232-.292-.0698-.419-.0465-.1269-.1143-.237-.2031-.3301-.0847-.093-.1905-.165-.3174-.2158-.1227-.0508-.2603-.0761-.4126-.0761h-3.7959c-.2666 0-.5544-.0466-.8633-.1397-.3089-.0973-.5967-.2518-.8633-.4634-.2623-.2116-.4824-.4887-.6601-.8315-.1735-.3428-.2603-.7617-.2603-1.2568 0-.4952.0868-.912.2603-1.2505.1777-.3428.3978-.62.6601-.8316.2666-.2158.5544-.3703.8633-.4634.3089-.0973.5967-.146.8633-.146h5.6177v1.6504h-5.6177c-.3132 0-.5586.0953-.7363.2857-.1735.1904-.2603.4422-.2603.7554 0 .3173.0868.5691.2603.7553.1777.182.4231.273.7363.273h3.8086c.1777.0042.366.0296.5649.0761.1989.0424.3957.1101.5904.2032.1989.0931.3872.2116.5649.3554.1777.1397.3343.309.4697.5078.1397.1989.2497.4275.3301.6856s.1206.5501.1206.876Zm9.5215 2.6787h-5.9541c-.1523 0-.3174-.0169-.4951-.0508-.1735-.0381-.347-.0952-.5205-.1714-.1693-.0762-.3322-.1735-.4888-.292-.1566-.1227-.2962-.2687-.4189-.438-.1185-.1735-.2137-.3724-.2857-.5966-.0719-.2286-.1079-.4846-.1079-.7681v-4.4688c0-.1523.0169-.3152.0508-.4887.0381-.1778.0952-.3513.1714-.5205.0761-.1735.1756-.3386.2983-.4952.1227-.1565.2687-.2941.438-.4126.1735-.1227.3724-.22.5967-.2919.2243-.072.4782-.108.7617-.108h5.9541v1.6504h-5.9541c-.2158 0-.3809.0572-.4951.1714-.1143.1143-.1714.2836-.1714.5078v4.4561c0 .2116.0571.3766.1714.4951.1185.1143.2835.1714.4951.1714h5.9541v1.6504Zm10.9751-3.6817c0 .5544-.0952 1.0643-.2856 1.5298-.1905.4655-.455.8675-.7935 1.2061-.3385.3385-.7406.603-1.2061.7934-.4612.1862-.9648.2793-1.5107.2793H38.103c-.5459 0-1.0516-.0931-1.5171-.2793-.4655-.1904-.8675-.4549-1.206-.7934-.3386-.3386-.6052-.7406-.7998-1.2061-.1905-.4655-.2857-.9754-.2857-1.5298v-1.7392c0-.5501.0952-1.058.2857-1.5235.1946-.4697.4612-.8717.7998-1.206.3385-.3385.7405-.603 1.206-.7935.4655-.1904.9712-.2856 1.5171-.2856h2.2344c.5459 0 1.0495.0952 1.5107.2856.4655.1905.8676.455 1.2061.7935.3385.3343.603.7363.7935 1.206.1904.4655.2856.9734.2856 1.5235v1.7392Zm-1.6504-1.7392c0-.3259-.0529-.62-.1587-.8823-.1015-.2666-.2475-.493-.438-.6792-.1862-.1905-.4126-.3365-.6792-.438-.2623-.1058-.5522-.1587-.8696-.1587H38.103c-.3216 0-.6157.0529-.8823.1587-.2624.1015-.4888.2475-.6792.438-.1904.1862-.3385.4126-.4443.6792-.1016.2623-.1524.5564-.1524.8823v1.7392c0 .3259.0508.6221.1524.8887.1058.2624.2539.4888.4443.6792.1904.1862.4168.3322.6792.438.2666.1016.5607.1523.8823.1523h2.2217c.3216 0 .6136-.0507.876-.1523.2666-.1058.4951-.2518.6855-.438.1905-.1904.3365-.4168.438-.6792.1058-.2666.1587-.5628.1587-.8887v-1.7392Zm12.3652 1.6123c0 .5544-.0973 1.0643-.2919 1.5298-.1905.4655-.455.8675-.7935 1.206-.3385.3343-.7406.5967-1.2061.7871-.4655.1905-.9712.2857-1.517.2857h-4.4561c-.1185 0-.2285-.0212-.3301-.0635-.1015-.0423-.1904-.0994-.2666-.1714-.0719-.0762-.1291-.165-.1714-.2666-.0423-.1015-.0634-.2116-.0634-.3301v-7.4394c0-.1143.0211-.2222.0634-.3237.0423-.1016.0995-.1905.1714-.2666.0762-.0762.1651-.1355.2666-.1778.1016-.0423.2116-.0635.3301-.0635h4.4561c.5458 0 1.0515.0953 1.517.2857.4655.1904.8676.4549 1.2061.7934.3385.3344.603.7364.7935 1.2061.1946.4655.2919.9733.2919 1.5234v1.4854Zm-1.6503-1.4854c0-.3216-.0529-.6157-.1587-.8823-.1016-.2666-.2476-.493-.438-.6792-.1905-.1904-.419-.3364-.6856-.438-.2623-.1058-.5543-.1587-.8759-.1587h-3.6373v5.8018h3.6373c.3216 0 .6136-.0508.8759-.1524.2666-.1057.4951-.2517.6856-.4379.1904-.1905.3364-.4169.438-.6792.1058-.2666.1587-.5629.1587-.8887v-1.4854Zm10.7529 1.5743h-5.2114v-1.6631h5.2114v1.6631Zm.7427 3.7197h-5.9541c-.2286 0-.4782-.0402-.7491-.1206-.2708-.0804-.5226-.2116-.7553-.3936-.2286-.1862-.4211-.4253-.5777-.7173-.1523-.2962-.2285-.658-.2285-1.0854v-5.9541c0-.1143.0212-.2222.0635-.3237.0423-.1016.0994-.1905.1714-.2666.0761-.0762.165-.1355.2666-.1778.1015-.0423.2116-.0635.3301-.0635h7.4331v1.6504h-6.6143v5.1353c0 .2158.0571.3808.1714.4951.1142.1143.2814.1714.5015.1714h5.9414v1.6504Z"/><defs><linearGradient id="a" x1=".38232" x2="69.5736" y1="0" y2="69.1913" gradientUnits="userSpaceOnUse"><stop stop-color="#fff"/><stop offset=".76563" stop-color="#fff" stop-opacity="0"/></linearGradient><linearGradient id="b" x1="10.8997" x2="59.0568" y1="10.5164" y2="58.6735" gradientUnits="userSpaceOnUse"><stop stop-color="#fff"/><stop offset=".82813" stop-color="#fff" stop-opacity="0"/></linearGradient><clipPath id="c"><path fill="#fff" d="M21.97 21.5873h26.0159v26.0159H21.97z"/></clipPath></defs></svg>